<mxfile host="Electron" modified="2023-10-19T20:17:56.948Z" agent="Mozilla/5.0 (X11; Linux x86_64) AppleWebKit/537.36 (KHTML, like Gecko) draw.io/22.0.3 Chrome/114.0.5735.289 Electron/25.8.4 Safari/537.36" etag="xg7yTmBnFr51Yi-Z9Px-" version="22.0.3" type="device">
  <diagram name="complexity" id="VwKCZza34KNpkzapye0U">
    <mxGraphModel dx="4608" dy="2322" grid="1" gridSize="10" guides="1" tooltips="1" connect="1" arrows="1" fold="1" page="1" pageScale="1" pageWidth="1654" pageHeight="1169" math="0" shadow="0">
      <root>
        <mxCell id="0" />
        <mxCell id="dbzIAWiyyoJPs32lD5O0-95" value="ensemble" parent="0" />
        <mxCell id="r81_bSy1_nfOfyMMS9X0-172" value="" style="rounded=0;whiteSpace=wrap;html=1;fontFamily=Helvetica;fontSize=11;fillColor=#fff2cc;strokeColor=#d6b656;" parent="dbzIAWiyyoJPs32lD5O0-95" vertex="1">
          <mxGeometry x="-150" y="-60" width="200" height="200" as="geometry" />
        </mxCell>
        <mxCell id="r81_bSy1_nfOfyMMS9X0-173" value="" style="rounded=0;whiteSpace=wrap;html=1;fontFamily=Helvetica;fontSize=11;fillColor=#d5e8d4;strokeColor=#82b366;" parent="dbzIAWiyyoJPs32lD5O0-95" vertex="1">
          <mxGeometry x="70" y="-60" width="200" height="200" as="geometry" />
        </mxCell>
        <mxCell id="r81_bSy1_nfOfyMMS9X0-174" value="" style="rounded=0;whiteSpace=wrap;html=1;fontFamily=Helvetica;fontSize=11;fillColor=#f8cecc;strokeColor=#b85450;" parent="dbzIAWiyyoJPs32lD5O0-95" vertex="1">
          <mxGeometry x="10" y="220" width="200" height="200" as="geometry" />
        </mxCell>
        <mxCell id="r81_bSy1_nfOfyMMS9X0-237" value="" style="rounded=0;whiteSpace=wrap;html=1;fontFamily=Helvetica;fontSize=11;fillColor=#fff2cc;strokeColor=#d6b656;" parent="dbzIAWiyyoJPs32lD5O0-95" vertex="1">
          <mxGeometry x="480" y="520" width="120" height="120" as="geometry" />
        </mxCell>
        <mxCell id="r81_bSy1_nfOfyMMS9X0-238" value="" style="rounded=0;whiteSpace=wrap;html=1;fontFamily=Helvetica;fontSize=11;fillColor=#d5e8d4;strokeColor=#82b366;" parent="dbzIAWiyyoJPs32lD5O0-95" vertex="1">
          <mxGeometry x="640" y="520" width="120" height="120" as="geometry" />
        </mxCell>
        <mxCell id="r81_bSy1_nfOfyMMS9X0-239" value="" style="rounded=0;whiteSpace=wrap;html=1;fontFamily=Helvetica;fontSize=11;fillColor=#f8cecc;strokeColor=#b85450;" parent="dbzIAWiyyoJPs32lD5O0-95" vertex="1">
          <mxGeometry x="640" y="720" width="120" height="120" as="geometry" />
        </mxCell>
        <mxCell id="r81_bSy1_nfOfyMMS9X0-298" style="edgeStyle=orthogonalEdgeStyle;shape=connector;rounded=0;orthogonalLoop=1;jettySize=auto;html=1;labelBackgroundColor=default;strokeColor=default;align=center;verticalAlign=middle;fontFamily=Helvetica;fontSize=11;fontColor=default;endArrow=classic;exitX=0.5;exitY=1;exitDx=0;exitDy=0;" parent="dbzIAWiyyoJPs32lD5O0-95" source="r81_bSy1_nfOfyMMS9X0-237" target="r81_bSy1_nfOfyMMS9X0-241" edge="1">
          <mxGeometry relative="1" as="geometry" />
        </mxCell>
        <mxCell id="r81_bSy1_nfOfyMMS9X0-304" value="" style="rounded=0;whiteSpace=wrap;html=1;fontFamily=Helvetica;fontSize=11;fillColor=#dae8fc;strokeColor=#6c8ebf;" parent="dbzIAWiyyoJPs32lD5O0-95" vertex="1">
          <mxGeometry x="-1060" y="170" width="430" height="230" as="geometry" />
        </mxCell>
        <mxCell id="Tij77vFqYgEeM6soHszD-154" value="" style="rounded=0;whiteSpace=wrap;html=1;fontFamily=Helvetica;fontSize=11;fillColor=#fff2cc;strokeColor=#d6b656;opacity=30;" vertex="1" parent="dbzIAWiyyoJPs32lD5O0-95">
          <mxGeometry x="-880" y="-650" width="200" height="200" as="geometry" />
        </mxCell>
        <mxCell id="Tij77vFqYgEeM6soHszD-155" value="" style="rounded=0;whiteSpace=wrap;html=1;fontFamily=Helvetica;fontSize=11;fillColor=#d5e8d4;strokeColor=#82b366;opacity=30;" vertex="1" parent="dbzIAWiyyoJPs32lD5O0-95">
          <mxGeometry x="-660" y="-650" width="200" height="200" as="geometry" />
        </mxCell>
        <mxCell id="Tij77vFqYgEeM6soHszD-156" value="" style="rounded=0;whiteSpace=wrap;html=1;fontFamily=Helvetica;fontSize=11;fillColor=#f8cecc;strokeColor=#b85450;opacity=30;" vertex="1" parent="dbzIAWiyyoJPs32lD5O0-95">
          <mxGeometry x="-720" y="-370" width="200" height="200" as="geometry" />
        </mxCell>
        <mxCell id="1" parent="0" />
        <mxCell id="r81_bSy1_nfOfyMMS9X0-170" value="" style="rounded=0;whiteSpace=wrap;html=1;fontFamily=Helvetica;fontSize=11;fillColor=#dae8fc;strokeColor=#6c8ebf;" parent="1" vertex="1">
          <mxGeometry x="-270" y="150" width="270" height="230" as="geometry" />
        </mxCell>
        <mxCell id="r81_bSy1_nfOfyMMS9X0-305" value="" style="rounded=0;whiteSpace=wrap;html=1;fontFamily=Helvetica;fontSize=11;fillColor=#dae8fc;strokeColor=#6c8ebf;" parent="1" vertex="1">
          <mxGeometry x="-960" y="-130" width="270" height="230" as="geometry" />
        </mxCell>
        <mxCell id="dbzIAWiyyoJPs32lD5O0-28" value="" style="edgeStyle=orthogonalEdgeStyle;rounded=0;orthogonalLoop=1;jettySize=auto;html=1;" parent="1" source="dbzIAWiyyoJPs32lD5O0-29" target="dbzIAWiyyoJPs32lD5O0-31" edge="1">
          <mxGeometry relative="1" as="geometry" />
        </mxCell>
        <mxCell id="r81_bSy1_nfOfyMMS9X0-166" style="edgeStyle=none;shape=connector;rounded=0;orthogonalLoop=1;jettySize=auto;html=1;entryX=0;entryY=0;entryDx=0;entryDy=0;labelBackgroundColor=default;strokeColor=default;align=center;verticalAlign=middle;fontFamily=Helvetica;fontSize=11;fontColor=default;endArrow=classic;" parent="1" source="dbzIAWiyyoJPs32lD5O0-29" target="dbzIAWiyyoJPs32lD5O0-15" edge="1">
          <mxGeometry relative="1" as="geometry" />
        </mxCell>
        <mxCell id="dbzIAWiyyoJPs32lD5O0-29" value="" style="rounded=1;whiteSpace=wrap;html=1;fillColor=#dae8fc;strokeColor=#6c8ebf;" parent="1" vertex="1">
          <mxGeometry x="380" y="210" width="40" height="40" as="geometry" />
        </mxCell>
        <mxCell id="dbzIAWiyyoJPs32lD5O0-30" value="" style="edgeStyle=orthogonalEdgeStyle;rounded=0;orthogonalLoop=1;jettySize=auto;html=1;" parent="1" source="dbzIAWiyyoJPs32lD5O0-31" target="dbzIAWiyyoJPs32lD5O0-33" edge="1">
          <mxGeometry relative="1" as="geometry" />
        </mxCell>
        <mxCell id="dbzIAWiyyoJPs32lD5O0-31" value="" style="rounded=1;whiteSpace=wrap;html=1;fillColor=#dae8fc;strokeColor=#6c8ebf;" parent="1" vertex="1">
          <mxGeometry x="500" y="210" width="40" height="40" as="geometry" />
        </mxCell>
        <mxCell id="dbzIAWiyyoJPs32lD5O0-32" value="" style="edgeStyle=orthogonalEdgeStyle;rounded=0;orthogonalLoop=1;jettySize=auto;html=1;" parent="1" source="dbzIAWiyyoJPs32lD5O0-33" target="dbzIAWiyyoJPs32lD5O0-35" edge="1">
          <mxGeometry relative="1" as="geometry" />
        </mxCell>
        <mxCell id="dbzIAWiyyoJPs32lD5O0-33" value="" style="rounded=1;whiteSpace=wrap;html=1;fillColor=#dae8fc;strokeColor=#6c8ebf;" parent="1" vertex="1">
          <mxGeometry x="500" y="330" width="40" height="40" as="geometry" />
        </mxCell>
        <mxCell id="dbzIAWiyyoJPs32lD5O0-34" value="" style="edgeStyle=orthogonalEdgeStyle;rounded=0;orthogonalLoop=1;jettySize=auto;html=1;" parent="1" source="dbzIAWiyyoJPs32lD5O0-35" target="dbzIAWiyyoJPs32lD5O0-29" edge="1">
          <mxGeometry relative="1" as="geometry" />
        </mxCell>
        <mxCell id="dbzIAWiyyoJPs32lD5O0-35" value="" style="rounded=1;whiteSpace=wrap;html=1;fillColor=#dae8fc;strokeColor=#6c8ebf;" parent="1" vertex="1">
          <mxGeometry x="380" y="330" width="40" height="40" as="geometry" />
        </mxCell>
        <mxCell id="dbzIAWiyyoJPs32lD5O0-60" style="edgeStyle=orthogonalEdgeStyle;rounded=0;orthogonalLoop=1;jettySize=auto;html=1;entryX=0.5;entryY=1;entryDx=0;entryDy=0;exitX=0.5;exitY=1;exitDx=0;exitDy=0;" parent="1" source="dbzIAWiyyoJPs32lD5O0-37" target="dbzIAWiyyoJPs32lD5O0-35" edge="1">
          <mxGeometry relative="1" as="geometry">
            <Array as="points">
              <mxPoint x="797" y="430" />
              <mxPoint x="400" y="430" />
            </Array>
          </mxGeometry>
        </mxCell>
        <mxCell id="dbzIAWiyyoJPs32lD5O0-58" style="rounded=0;orthogonalLoop=1;jettySize=auto;html=1;entryX=1;entryY=0.5;entryDx=0;entryDy=0;" parent="1" source="dbzIAWiyyoJPs32lD5O0-50" target="dbzIAWiyyoJPs32lD5O0-31" edge="1">
          <mxGeometry relative="1" as="geometry" />
        </mxCell>
        <mxCell id="dbzIAWiyyoJPs32lD5O0-59" style="rounded=0;orthogonalLoop=1;jettySize=auto;html=1;" parent="1" source="dbzIAWiyyoJPs32lD5O0-50" target="dbzIAWiyyoJPs32lD5O0-39" edge="1">
          <mxGeometry relative="1" as="geometry" />
        </mxCell>
        <mxCell id="dbzIAWiyyoJPs32lD5O0-61" value="" style="group" parent="1" vertex="1" connectable="0">
          <mxGeometry x="637" y="-50" width="180" height="180" as="geometry" />
        </mxCell>
        <mxCell id="dbzIAWiyyoJPs32lD5O0-36" value="" style="rounded=1;whiteSpace=wrap;html=1;fillColor=#d5e8d4;strokeColor=#82b366;" parent="dbzIAWiyyoJPs32lD5O0-61" vertex="1">
          <mxGeometry x="70" y="140" width="40" height="40" as="geometry" />
        </mxCell>
        <mxCell id="dbzIAWiyyoJPs32lD5O0-37" value="" style="rounded=1;whiteSpace=wrap;html=1;fillColor=#d5e8d4;strokeColor=#82b366;" parent="dbzIAWiyyoJPs32lD5O0-61" vertex="1">
          <mxGeometry x="140" y="110" width="40" height="40" as="geometry" />
        </mxCell>
        <mxCell id="dbzIAWiyyoJPs32lD5O0-38" value="" style="rounded=0;orthogonalLoop=1;jettySize=auto;html=1;" parent="dbzIAWiyyoJPs32lD5O0-61" source="dbzIAWiyyoJPs32lD5O0-36" target="dbzIAWiyyoJPs32lD5O0-37" edge="1">
          <mxGeometry relative="1" as="geometry" />
        </mxCell>
        <mxCell id="dbzIAWiyyoJPs32lD5O0-39" value="" style="rounded=1;whiteSpace=wrap;html=1;fillColor=#d5e8d4;strokeColor=#82b366;" parent="dbzIAWiyyoJPs32lD5O0-61" vertex="1">
          <mxGeometry y="100" width="40" height="40" as="geometry" />
        </mxCell>
        <mxCell id="dbzIAWiyyoJPs32lD5O0-40" value="" style="rounded=0;orthogonalLoop=1;jettySize=auto;html=1;" parent="dbzIAWiyyoJPs32lD5O0-61" source="dbzIAWiyyoJPs32lD5O0-36" target="dbzIAWiyyoJPs32lD5O0-39" edge="1">
          <mxGeometry relative="1" as="geometry" />
        </mxCell>
        <mxCell id="dbzIAWiyyoJPs32lD5O0-49" style="rounded=0;orthogonalLoop=1;jettySize=auto;html=1;entryX=0;entryY=0.25;entryDx=0;entryDy=0;" parent="dbzIAWiyyoJPs32lD5O0-61" source="dbzIAWiyyoJPs32lD5O0-41" target="dbzIAWiyyoJPs32lD5O0-37" edge="1">
          <mxGeometry relative="1" as="geometry" />
        </mxCell>
        <mxCell id="dbzIAWiyyoJPs32lD5O0-41" value="" style="rounded=1;whiteSpace=wrap;html=1;fillColor=#d5e8d4;strokeColor=#82b366;" parent="dbzIAWiyyoJPs32lD5O0-61" vertex="1">
          <mxGeometry y="30" width="40" height="40" as="geometry" />
        </mxCell>
        <mxCell id="dbzIAWiyyoJPs32lD5O0-42" value="" style="rounded=0;orthogonalLoop=1;jettySize=auto;html=1;" parent="dbzIAWiyyoJPs32lD5O0-61" source="dbzIAWiyyoJPs32lD5O0-39" target="dbzIAWiyyoJPs32lD5O0-41" edge="1">
          <mxGeometry relative="1" as="geometry" />
        </mxCell>
        <mxCell id="dbzIAWiyyoJPs32lD5O0-43" value="" style="rounded=1;whiteSpace=wrap;html=1;fillColor=#d5e8d4;strokeColor=#82b366;" parent="dbzIAWiyyoJPs32lD5O0-61" vertex="1">
          <mxGeometry x="70" width="40" height="40" as="geometry" />
        </mxCell>
        <mxCell id="dbzIAWiyyoJPs32lD5O0-48" style="edgeStyle=orthogonalEdgeStyle;rounded=0;orthogonalLoop=1;jettySize=auto;html=1;entryX=0.5;entryY=1;entryDx=0;entryDy=0;" parent="dbzIAWiyyoJPs32lD5O0-61" source="dbzIAWiyyoJPs32lD5O0-36" target="dbzIAWiyyoJPs32lD5O0-43" edge="1">
          <mxGeometry relative="1" as="geometry" />
        </mxCell>
        <mxCell id="dbzIAWiyyoJPs32lD5O0-44" value="" style="rounded=0;orthogonalLoop=1;jettySize=auto;html=1;" parent="dbzIAWiyyoJPs32lD5O0-61" source="dbzIAWiyyoJPs32lD5O0-41" target="dbzIAWiyyoJPs32lD5O0-43" edge="1">
          <mxGeometry relative="1" as="geometry" />
        </mxCell>
        <mxCell id="dbzIAWiyyoJPs32lD5O0-45" value="" style="rounded=1;whiteSpace=wrap;html=1;fillColor=#d5e8d4;strokeColor=#82b366;" parent="dbzIAWiyyoJPs32lD5O0-61" vertex="1">
          <mxGeometry x="140" y="20" width="40" height="40" as="geometry" />
        </mxCell>
        <mxCell id="dbzIAWiyyoJPs32lD5O0-47" style="rounded=0;orthogonalLoop=1;jettySize=auto;html=1;entryX=0.5;entryY=1;entryDx=0;entryDy=0;" parent="dbzIAWiyyoJPs32lD5O0-61" source="dbzIAWiyyoJPs32lD5O0-37" target="dbzIAWiyyoJPs32lD5O0-45" edge="1">
          <mxGeometry relative="1" as="geometry" />
        </mxCell>
        <mxCell id="dbzIAWiyyoJPs32lD5O0-46" value="" style="rounded=0;orthogonalLoop=1;jettySize=auto;html=1;" parent="dbzIAWiyyoJPs32lD5O0-61" source="dbzIAWiyyoJPs32lD5O0-43" target="dbzIAWiyyoJPs32lD5O0-45" edge="1">
          <mxGeometry relative="1" as="geometry" />
        </mxCell>
        <mxCell id="dbzIAWiyyoJPs32lD5O0-62" value="" style="group" parent="1" vertex="1" connectable="0">
          <mxGeometry x="580" y="280" width="160" height="120" as="geometry" />
        </mxCell>
        <mxCell id="dbzIAWiyyoJPs32lD5O0-50" value="" style="rounded=1;whiteSpace=wrap;html=1;fillColor=#f8cecc;strokeColor=#b85450;" parent="dbzIAWiyyoJPs32lD5O0-62" vertex="1">
          <mxGeometry x="60" width="40" height="40" as="geometry" />
        </mxCell>
        <mxCell id="dbzIAWiyyoJPs32lD5O0-51" value="" style="rounded=1;whiteSpace=wrap;html=1;fillColor=#f8cecc;strokeColor=#b85450;" parent="dbzIAWiyyoJPs32lD5O0-62" vertex="1">
          <mxGeometry y="80" width="40" height="40" as="geometry" />
        </mxCell>
        <mxCell id="dbzIAWiyyoJPs32lD5O0-52" value="" style="rounded=0;orthogonalLoop=1;jettySize=auto;html=1;" parent="dbzIAWiyyoJPs32lD5O0-62" source="dbzIAWiyyoJPs32lD5O0-50" target="dbzIAWiyyoJPs32lD5O0-51" edge="1">
          <mxGeometry relative="1" as="geometry" />
        </mxCell>
        <mxCell id="dbzIAWiyyoJPs32lD5O0-57" style="rounded=0;orthogonalLoop=1;jettySize=auto;html=1;exitX=0.5;exitY=0;exitDx=0;exitDy=0;" parent="dbzIAWiyyoJPs32lD5O0-62" source="dbzIAWiyyoJPs32lD5O0-53" target="dbzIAWiyyoJPs32lD5O0-50" edge="1">
          <mxGeometry relative="1" as="geometry" />
        </mxCell>
        <mxCell id="dbzIAWiyyoJPs32lD5O0-53" value="" style="rounded=1;whiteSpace=wrap;html=1;fillColor=#f8cecc;strokeColor=#b85450;" parent="dbzIAWiyyoJPs32lD5O0-62" vertex="1">
          <mxGeometry x="120" y="80" width="40" height="40" as="geometry" />
        </mxCell>
        <mxCell id="dbzIAWiyyoJPs32lD5O0-54" value="" style="rounded=0;orthogonalLoop=1;jettySize=auto;html=1;" parent="dbzIAWiyyoJPs32lD5O0-62" source="dbzIAWiyyoJPs32lD5O0-51" target="dbzIAWiyyoJPs32lD5O0-53" edge="1">
          <mxGeometry relative="1" as="geometry" />
        </mxCell>
        <mxCell id="dbzIAWiyyoJPs32lD5O0-63" value="" style="group" parent="1" vertex="1" connectable="0">
          <mxGeometry x="320" y="160" width="160" height="160" as="geometry" />
        </mxCell>
        <mxCell id="dbzIAWiyyoJPs32lD5O0-12" value="" style="rounded=1;whiteSpace=wrap;html=1;fillColor=#dae8fc;strokeColor=#6c8ebf;" parent="dbzIAWiyyoJPs32lD5O0-63" vertex="1">
          <mxGeometry width="40" height="40" as="geometry" />
        </mxCell>
        <mxCell id="dbzIAWiyyoJPs32lD5O0-13" value="" style="rounded=1;whiteSpace=wrap;html=1;fillColor=#dae8fc;strokeColor=#6c8ebf;" parent="dbzIAWiyyoJPs32lD5O0-63" vertex="1">
          <mxGeometry x="120" width="40" height="40" as="geometry" />
        </mxCell>
        <mxCell id="dbzIAWiyyoJPs32lD5O0-14" value="" style="edgeStyle=orthogonalEdgeStyle;rounded=0;orthogonalLoop=1;jettySize=auto;html=1;" parent="dbzIAWiyyoJPs32lD5O0-63" source="dbzIAWiyyoJPs32lD5O0-12" target="dbzIAWiyyoJPs32lD5O0-13" edge="1">
          <mxGeometry relative="1" as="geometry" />
        </mxCell>
        <mxCell id="dbzIAWiyyoJPs32lD5O0-15" value="" style="rounded=1;whiteSpace=wrap;html=1;fillColor=#dae8fc;strokeColor=#6c8ebf;" parent="dbzIAWiyyoJPs32lD5O0-63" vertex="1">
          <mxGeometry x="120" y="120" width="40" height="40" as="geometry" />
        </mxCell>
        <mxCell id="dbzIAWiyyoJPs32lD5O0-16" value="" style="edgeStyle=orthogonalEdgeStyle;rounded=0;orthogonalLoop=1;jettySize=auto;html=1;" parent="dbzIAWiyyoJPs32lD5O0-63" source="dbzIAWiyyoJPs32lD5O0-13" target="dbzIAWiyyoJPs32lD5O0-15" edge="1">
          <mxGeometry relative="1" as="geometry" />
        </mxCell>
        <mxCell id="dbzIAWiyyoJPs32lD5O0-19" value="" style="edgeStyle=orthogonalEdgeStyle;rounded=0;orthogonalLoop=1;jettySize=auto;html=1;" parent="dbzIAWiyyoJPs32lD5O0-63" source="dbzIAWiyyoJPs32lD5O0-17" target="dbzIAWiyyoJPs32lD5O0-12" edge="1">
          <mxGeometry relative="1" as="geometry" />
        </mxCell>
        <mxCell id="dbzIAWiyyoJPs32lD5O0-17" value="" style="rounded=1;whiteSpace=wrap;html=1;fillColor=#dae8fc;strokeColor=#6c8ebf;" parent="dbzIAWiyyoJPs32lD5O0-63" vertex="1">
          <mxGeometry y="120" width="40" height="40" as="geometry" />
        </mxCell>
        <mxCell id="dbzIAWiyyoJPs32lD5O0-18" value="" style="edgeStyle=orthogonalEdgeStyle;rounded=0;orthogonalLoop=1;jettySize=auto;html=1;" parent="dbzIAWiyyoJPs32lD5O0-63" source="dbzIAWiyyoJPs32lD5O0-15" target="dbzIAWiyyoJPs32lD5O0-17" edge="1">
          <mxGeometry relative="1" as="geometry" />
        </mxCell>
        <mxCell id="dbzIAWiyyoJPs32lD5O0-94" style="rounded=0;orthogonalLoop=1;jettySize=auto;html=1;exitX=0.5;exitY=1;exitDx=0;exitDy=0;" parent="1" source="dbzIAWiyyoJPs32lD5O0-80" target="dbzIAWiyyoJPs32lD5O0-31" edge="1">
          <mxGeometry relative="1" as="geometry" />
        </mxCell>
        <mxCell id="dbzIAWiyyoJPs32lD5O0-79" value="" style="group" parent="1" vertex="1" connectable="0">
          <mxGeometry x="430" y="-40" width="180" height="180" as="geometry" />
        </mxCell>
        <mxCell id="dbzIAWiyyoJPs32lD5O0-80" value="" style="rounded=1;whiteSpace=wrap;html=1;fillColor=#fff2cc;strokeColor=#d6b656;" parent="dbzIAWiyyoJPs32lD5O0-79" vertex="1">
          <mxGeometry x="70" y="130" width="40" height="40" as="geometry" />
        </mxCell>
        <mxCell id="dbzIAWiyyoJPs32lD5O0-81" value="" style="rounded=1;whiteSpace=wrap;html=1;fillColor=#fff2cc;strokeColor=#d6b656;" parent="dbzIAWiyyoJPs32lD5O0-79" vertex="1">
          <mxGeometry x="140" y="100" width="40" height="40" as="geometry" />
        </mxCell>
        <mxCell id="dbzIAWiyyoJPs32lD5O0-82" value="" style="rounded=0;orthogonalLoop=1;jettySize=auto;html=1;" parent="dbzIAWiyyoJPs32lD5O0-79" target="dbzIAWiyyoJPs32lD5O0-81" edge="1">
          <mxGeometry relative="1" as="geometry">
            <mxPoint x="110" y="141.42857142857156" as="sourcePoint" />
          </mxGeometry>
        </mxCell>
        <mxCell id="dbzIAWiyyoJPs32lD5O0-83" value="" style="rounded=1;whiteSpace=wrap;html=1;fillColor=#fff2cc;strokeColor=#d6b656;" parent="dbzIAWiyyoJPs32lD5O0-79" vertex="1">
          <mxGeometry y="90" width="40" height="40" as="geometry" />
        </mxCell>
        <mxCell id="dbzIAWiyyoJPs32lD5O0-84" value="" style="rounded=0;orthogonalLoop=1;jettySize=auto;html=1;" parent="dbzIAWiyyoJPs32lD5O0-79" target="dbzIAWiyyoJPs32lD5O0-83" edge="1">
          <mxGeometry relative="1" as="geometry">
            <mxPoint x="70" y="138.57142857142844" as="sourcePoint" />
          </mxGeometry>
        </mxCell>
        <mxCell id="dbzIAWiyyoJPs32lD5O0-86" value="" style="rounded=1;whiteSpace=wrap;html=1;fillColor=#fff2cc;strokeColor=#d6b656;" parent="dbzIAWiyyoJPs32lD5O0-79" vertex="1">
          <mxGeometry y="20" width="40" height="40" as="geometry" />
        </mxCell>
        <mxCell id="dbzIAWiyyoJPs32lD5O0-87" value="" style="rounded=0;orthogonalLoop=1;jettySize=auto;html=1;" parent="dbzIAWiyyoJPs32lD5O0-79" source="dbzIAWiyyoJPs32lD5O0-83" target="dbzIAWiyyoJPs32lD5O0-86" edge="1">
          <mxGeometry relative="1" as="geometry" />
        </mxCell>
        <mxCell id="dbzIAWiyyoJPs32lD5O0-88" value="" style="rounded=1;whiteSpace=wrap;html=1;fillColor=#fff2cc;strokeColor=#d6b656;" parent="dbzIAWiyyoJPs32lD5O0-79" vertex="1">
          <mxGeometry x="70" y="-10" width="40" height="40" as="geometry" />
        </mxCell>
        <mxCell id="dbzIAWiyyoJPs32lD5O0-90" value="" style="rounded=0;orthogonalLoop=1;jettySize=auto;html=1;" parent="dbzIAWiyyoJPs32lD5O0-79" source="dbzIAWiyyoJPs32lD5O0-86" target="dbzIAWiyyoJPs32lD5O0-88" edge="1">
          <mxGeometry relative="1" as="geometry" />
        </mxCell>
        <mxCell id="dbzIAWiyyoJPs32lD5O0-91" value="" style="rounded=1;whiteSpace=wrap;html=1;fillColor=#fff2cc;strokeColor=#d6b656;" parent="dbzIAWiyyoJPs32lD5O0-79" vertex="1">
          <mxGeometry x="140" y="10" width="40" height="40" as="geometry" />
        </mxCell>
        <mxCell id="dbzIAWiyyoJPs32lD5O0-92" style="rounded=0;orthogonalLoop=1;jettySize=auto;html=1;entryX=0.5;entryY=1;entryDx=0;entryDy=0;" parent="dbzIAWiyyoJPs32lD5O0-79" source="dbzIAWiyyoJPs32lD5O0-81" target="dbzIAWiyyoJPs32lD5O0-91" edge="1">
          <mxGeometry relative="1" as="geometry" />
        </mxCell>
        <mxCell id="dbzIAWiyyoJPs32lD5O0-93" value="" style="rounded=0;orthogonalLoop=1;jettySize=auto;html=1;" parent="dbzIAWiyyoJPs32lD5O0-79" source="dbzIAWiyyoJPs32lD5O0-88" target="dbzIAWiyyoJPs32lD5O0-91" edge="1">
          <mxGeometry relative="1" as="geometry" />
        </mxCell>
        <mxCell id="dbzIAWiyyoJPs32lD5O0-98" value="" style="edgeStyle=orthogonalEdgeStyle;rounded=0;orthogonalLoop=1;jettySize=auto;html=1;" parent="1" source="dbzIAWiyyoJPs32lD5O0-99" target="dbzIAWiyyoJPs32lD5O0-101" edge="1">
          <mxGeometry relative="1" as="geometry" />
        </mxCell>
        <mxCell id="dbzIAWiyyoJPs32lD5O0-99" value="" style="rounded=1;whiteSpace=wrap;html=1;fillColor=#dae8fc;strokeColor=#6c8ebf;" parent="1" vertex="1">
          <mxGeometry x="980" y="210" width="40" height="40" as="geometry" />
        </mxCell>
        <mxCell id="dbzIAWiyyoJPs32lD5O0-100" value="" style="edgeStyle=orthogonalEdgeStyle;rounded=0;orthogonalLoop=1;jettySize=auto;html=1;" parent="1" source="dbzIAWiyyoJPs32lD5O0-101" target="dbzIAWiyyoJPs32lD5O0-103" edge="1">
          <mxGeometry relative="1" as="geometry" />
        </mxCell>
        <mxCell id="dbzIAWiyyoJPs32lD5O0-101" value="" style="rounded=1;whiteSpace=wrap;html=1;fillColor=#dae8fc;strokeColor=#6c8ebf;" parent="1" vertex="1">
          <mxGeometry x="1100" y="210" width="40" height="40" as="geometry" />
        </mxCell>
        <mxCell id="dbzIAWiyyoJPs32lD5O0-102" value="" style="edgeStyle=orthogonalEdgeStyle;rounded=0;orthogonalLoop=1;jettySize=auto;html=1;" parent="1" source="dbzIAWiyyoJPs32lD5O0-103" target="dbzIAWiyyoJPs32lD5O0-105" edge="1">
          <mxGeometry relative="1" as="geometry" />
        </mxCell>
        <mxCell id="dbzIAWiyyoJPs32lD5O0-103" value="" style="rounded=1;whiteSpace=wrap;html=1;fillColor=#dae8fc;strokeColor=#6c8ebf;" parent="1" vertex="1">
          <mxGeometry x="1100" y="330" width="40" height="40" as="geometry" />
        </mxCell>
        <mxCell id="dbzIAWiyyoJPs32lD5O0-104" value="" style="edgeStyle=orthogonalEdgeStyle;rounded=0;orthogonalLoop=1;jettySize=auto;html=1;" parent="1" source="dbzIAWiyyoJPs32lD5O0-105" target="dbzIAWiyyoJPs32lD5O0-99" edge="1">
          <mxGeometry relative="1" as="geometry" />
        </mxCell>
        <mxCell id="dbzIAWiyyoJPs32lD5O0-105" value="" style="rounded=1;whiteSpace=wrap;html=1;fillColor=#dae8fc;strokeColor=#6c8ebf;" parent="1" vertex="1">
          <mxGeometry x="980" y="330" width="40" height="40" as="geometry" />
        </mxCell>
        <mxCell id="dbzIAWiyyoJPs32lD5O0-106" style="edgeStyle=orthogonalEdgeStyle;rounded=0;orthogonalLoop=1;jettySize=auto;html=1;entryX=0.5;entryY=1;entryDx=0;entryDy=0;exitX=0.5;exitY=1;exitDx=0;exitDy=0;" parent="1" source="dbzIAWiyyoJPs32lD5O0-111" target="dbzIAWiyyoJPs32lD5O0-105" edge="1">
          <mxGeometry relative="1" as="geometry">
            <Array as="points">
              <mxPoint x="1397" y="430" />
              <mxPoint x="1000" y="430" />
            </Array>
          </mxGeometry>
        </mxCell>
        <mxCell id="dbzIAWiyyoJPs32lD5O0-107" style="rounded=0;orthogonalLoop=1;jettySize=auto;html=1;entryX=1;entryY=0.5;entryDx=0;entryDy=0;" parent="1" source="dbzIAWiyyoJPs32lD5O0-125" target="dbzIAWiyyoJPs32lD5O0-101" edge="1">
          <mxGeometry relative="1" as="geometry" />
        </mxCell>
        <mxCell id="dbzIAWiyyoJPs32lD5O0-108" style="rounded=0;orthogonalLoop=1;jettySize=auto;html=1;" parent="1" source="dbzIAWiyyoJPs32lD5O0-125" target="dbzIAWiyyoJPs32lD5O0-113" edge="1">
          <mxGeometry relative="1" as="geometry" />
        </mxCell>
        <mxCell id="dbzIAWiyyoJPs32lD5O0-109" value="" style="group" parent="1" vertex="1" connectable="0">
          <mxGeometry x="1237" y="-40" width="180" height="180" as="geometry" />
        </mxCell>
        <mxCell id="dbzIAWiyyoJPs32lD5O0-110" value="" style="rounded=1;whiteSpace=wrap;html=1;fillColor=#d5e8d4;strokeColor=#82b366;" parent="dbzIAWiyyoJPs32lD5O0-109" vertex="1">
          <mxGeometry x="70" y="140" width="40" height="40" as="geometry" />
        </mxCell>
        <mxCell id="dbzIAWiyyoJPs32lD5O0-111" value="" style="rounded=1;whiteSpace=wrap;html=1;fillColor=#d5e8d4;strokeColor=#82b366;" parent="dbzIAWiyyoJPs32lD5O0-109" vertex="1">
          <mxGeometry x="140" y="110" width="40" height="40" as="geometry" />
        </mxCell>
        <mxCell id="dbzIAWiyyoJPs32lD5O0-112" value="" style="rounded=0;orthogonalLoop=1;jettySize=auto;html=1;" parent="dbzIAWiyyoJPs32lD5O0-109" source="dbzIAWiyyoJPs32lD5O0-110" target="dbzIAWiyyoJPs32lD5O0-111" edge="1">
          <mxGeometry relative="1" as="geometry" />
        </mxCell>
        <mxCell id="dbzIAWiyyoJPs32lD5O0-113" value="" style="rounded=1;whiteSpace=wrap;html=1;fillColor=#d5e8d4;strokeColor=#82b366;" parent="dbzIAWiyyoJPs32lD5O0-109" vertex="1">
          <mxGeometry y="100" width="40" height="40" as="geometry" />
        </mxCell>
        <mxCell id="dbzIAWiyyoJPs32lD5O0-114" value="" style="rounded=0;orthogonalLoop=1;jettySize=auto;html=1;" parent="dbzIAWiyyoJPs32lD5O0-109" source="dbzIAWiyyoJPs32lD5O0-110" target="dbzIAWiyyoJPs32lD5O0-113" edge="1">
          <mxGeometry relative="1" as="geometry" />
        </mxCell>
        <mxCell id="dbzIAWiyyoJPs32lD5O0-115" style="rounded=0;orthogonalLoop=1;jettySize=auto;html=1;entryX=0;entryY=0.25;entryDx=0;entryDy=0;" parent="dbzIAWiyyoJPs32lD5O0-109" source="dbzIAWiyyoJPs32lD5O0-116" target="dbzIAWiyyoJPs32lD5O0-111" edge="1">
          <mxGeometry relative="1" as="geometry" />
        </mxCell>
        <mxCell id="dbzIAWiyyoJPs32lD5O0-116" value="" style="rounded=1;whiteSpace=wrap;html=1;fillColor=#d5e8d4;strokeColor=#82b366;" parent="dbzIAWiyyoJPs32lD5O0-109" vertex="1">
          <mxGeometry y="30" width="40" height="40" as="geometry" />
        </mxCell>
        <mxCell id="dbzIAWiyyoJPs32lD5O0-117" value="" style="rounded=0;orthogonalLoop=1;jettySize=auto;html=1;" parent="dbzIAWiyyoJPs32lD5O0-109" source="dbzIAWiyyoJPs32lD5O0-113" target="dbzIAWiyyoJPs32lD5O0-116" edge="1">
          <mxGeometry relative="1" as="geometry" />
        </mxCell>
        <mxCell id="dbzIAWiyyoJPs32lD5O0-118" value="" style="rounded=1;whiteSpace=wrap;html=1;fillColor=#d5e8d4;strokeColor=#82b366;" parent="dbzIAWiyyoJPs32lD5O0-109" vertex="1">
          <mxGeometry x="70" width="40" height="40" as="geometry" />
        </mxCell>
        <mxCell id="dbzIAWiyyoJPs32lD5O0-119" style="edgeStyle=orthogonalEdgeStyle;rounded=0;orthogonalLoop=1;jettySize=auto;html=1;entryX=0.5;entryY=1;entryDx=0;entryDy=0;" parent="dbzIAWiyyoJPs32lD5O0-109" source="dbzIAWiyyoJPs32lD5O0-110" target="dbzIAWiyyoJPs32lD5O0-118" edge="1">
          <mxGeometry relative="1" as="geometry" />
        </mxCell>
        <mxCell id="dbzIAWiyyoJPs32lD5O0-120" value="" style="rounded=0;orthogonalLoop=1;jettySize=auto;html=1;" parent="dbzIAWiyyoJPs32lD5O0-109" source="dbzIAWiyyoJPs32lD5O0-116" target="dbzIAWiyyoJPs32lD5O0-118" edge="1">
          <mxGeometry relative="1" as="geometry" />
        </mxCell>
        <mxCell id="dbzIAWiyyoJPs32lD5O0-121" value="" style="rounded=1;whiteSpace=wrap;html=1;fillColor=#d5e8d4;strokeColor=#82b366;" parent="dbzIAWiyyoJPs32lD5O0-109" vertex="1">
          <mxGeometry x="140" y="20" width="40" height="40" as="geometry" />
        </mxCell>
        <mxCell id="dbzIAWiyyoJPs32lD5O0-122" style="rounded=0;orthogonalLoop=1;jettySize=auto;html=1;entryX=0.5;entryY=1;entryDx=0;entryDy=0;" parent="dbzIAWiyyoJPs32lD5O0-109" source="dbzIAWiyyoJPs32lD5O0-111" target="dbzIAWiyyoJPs32lD5O0-121" edge="1">
          <mxGeometry relative="1" as="geometry" />
        </mxCell>
        <mxCell id="dbzIAWiyyoJPs32lD5O0-123" value="" style="rounded=0;orthogonalLoop=1;jettySize=auto;html=1;" parent="dbzIAWiyyoJPs32lD5O0-109" source="dbzIAWiyyoJPs32lD5O0-118" target="dbzIAWiyyoJPs32lD5O0-121" edge="1">
          <mxGeometry relative="1" as="geometry" />
        </mxCell>
        <mxCell id="dbzIAWiyyoJPs32lD5O0-124" value="" style="group" parent="1" vertex="1" connectable="0">
          <mxGeometry x="990" y="-20" width="160" height="120" as="geometry" />
        </mxCell>
        <mxCell id="dbzIAWiyyoJPs32lD5O0-125" value="" style="rounded=1;whiteSpace=wrap;html=1;fillColor=#f8cecc;strokeColor=#b85450;" parent="dbzIAWiyyoJPs32lD5O0-124" vertex="1">
          <mxGeometry x="60" width="40" height="40" as="geometry" />
        </mxCell>
        <mxCell id="dbzIAWiyyoJPs32lD5O0-126" value="" style="rounded=1;whiteSpace=wrap;html=1;fillColor=#f8cecc;strokeColor=#b85450;" parent="dbzIAWiyyoJPs32lD5O0-124" vertex="1">
          <mxGeometry y="80" width="40" height="40" as="geometry" />
        </mxCell>
        <mxCell id="dbzIAWiyyoJPs32lD5O0-127" value="" style="rounded=0;orthogonalLoop=1;jettySize=auto;html=1;" parent="dbzIAWiyyoJPs32lD5O0-124" source="dbzIAWiyyoJPs32lD5O0-125" target="dbzIAWiyyoJPs32lD5O0-126" edge="1">
          <mxGeometry relative="1" as="geometry" />
        </mxCell>
        <mxCell id="dbzIAWiyyoJPs32lD5O0-128" style="rounded=0;orthogonalLoop=1;jettySize=auto;html=1;exitX=0.5;exitY=0;exitDx=0;exitDy=0;" parent="dbzIAWiyyoJPs32lD5O0-124" source="dbzIAWiyyoJPs32lD5O0-129" target="dbzIAWiyyoJPs32lD5O0-125" edge="1">
          <mxGeometry relative="1" as="geometry" />
        </mxCell>
        <mxCell id="dbzIAWiyyoJPs32lD5O0-129" value="" style="rounded=1;whiteSpace=wrap;html=1;fillColor=#f8cecc;strokeColor=#b85450;" parent="dbzIAWiyyoJPs32lD5O0-124" vertex="1">
          <mxGeometry x="120" y="80" width="40" height="40" as="geometry" />
        </mxCell>
        <mxCell id="dbzIAWiyyoJPs32lD5O0-130" value="" style="rounded=0;orthogonalLoop=1;jettySize=auto;html=1;" parent="dbzIAWiyyoJPs32lD5O0-124" source="dbzIAWiyyoJPs32lD5O0-126" target="dbzIAWiyyoJPs32lD5O0-129" edge="1">
          <mxGeometry relative="1" as="geometry" />
        </mxCell>
        <mxCell id="dbzIAWiyyoJPs32lD5O0-131" value="" style="group" parent="1" vertex="1" connectable="0">
          <mxGeometry x="920" y="160" width="160" height="160" as="geometry" />
        </mxCell>
        <mxCell id="dbzIAWiyyoJPs32lD5O0-132" value="" style="rounded=1;whiteSpace=wrap;html=1;fillColor=#dae8fc;strokeColor=#6c8ebf;" parent="dbzIAWiyyoJPs32lD5O0-131" vertex="1">
          <mxGeometry width="40" height="40" as="geometry" />
        </mxCell>
        <mxCell id="dbzIAWiyyoJPs32lD5O0-133" value="" style="rounded=1;whiteSpace=wrap;html=1;fillColor=#dae8fc;strokeColor=#6c8ebf;" parent="dbzIAWiyyoJPs32lD5O0-131" vertex="1">
          <mxGeometry x="120" width="40" height="40" as="geometry" />
        </mxCell>
        <mxCell id="dbzIAWiyyoJPs32lD5O0-134" value="" style="edgeStyle=orthogonalEdgeStyle;rounded=0;orthogonalLoop=1;jettySize=auto;html=1;" parent="dbzIAWiyyoJPs32lD5O0-131" source="dbzIAWiyyoJPs32lD5O0-132" target="dbzIAWiyyoJPs32lD5O0-133" edge="1">
          <mxGeometry relative="1" as="geometry" />
        </mxCell>
        <mxCell id="dbzIAWiyyoJPs32lD5O0-135" value="" style="rounded=1;whiteSpace=wrap;html=1;fillColor=#dae8fc;strokeColor=#6c8ebf;" parent="dbzIAWiyyoJPs32lD5O0-131" vertex="1">
          <mxGeometry x="120" y="120" width="40" height="40" as="geometry" />
        </mxCell>
        <mxCell id="dbzIAWiyyoJPs32lD5O0-136" value="" style="edgeStyle=orthogonalEdgeStyle;rounded=0;orthogonalLoop=1;jettySize=auto;html=1;" parent="dbzIAWiyyoJPs32lD5O0-131" source="dbzIAWiyyoJPs32lD5O0-133" target="dbzIAWiyyoJPs32lD5O0-135" edge="1">
          <mxGeometry relative="1" as="geometry" />
        </mxCell>
        <mxCell id="dbzIAWiyyoJPs32lD5O0-137" value="" style="edgeStyle=orthogonalEdgeStyle;rounded=0;orthogonalLoop=1;jettySize=auto;html=1;" parent="dbzIAWiyyoJPs32lD5O0-131" source="dbzIAWiyyoJPs32lD5O0-138" target="dbzIAWiyyoJPs32lD5O0-132" edge="1">
          <mxGeometry relative="1" as="geometry" />
        </mxCell>
        <mxCell id="dbzIAWiyyoJPs32lD5O0-138" value="" style="rounded=1;whiteSpace=wrap;html=1;fillColor=#dae8fc;strokeColor=#6c8ebf;" parent="dbzIAWiyyoJPs32lD5O0-131" vertex="1">
          <mxGeometry y="120" width="40" height="40" as="geometry" />
        </mxCell>
        <mxCell id="dbzIAWiyyoJPs32lD5O0-139" value="" style="edgeStyle=orthogonalEdgeStyle;rounded=0;orthogonalLoop=1;jettySize=auto;html=1;" parent="dbzIAWiyyoJPs32lD5O0-131" source="dbzIAWiyyoJPs32lD5O0-135" target="dbzIAWiyyoJPs32lD5O0-138" edge="1">
          <mxGeometry relative="1" as="geometry" />
        </mxCell>
        <mxCell id="dbzIAWiyyoJPs32lD5O0-140" style="rounded=0;orthogonalLoop=1;jettySize=auto;html=1;exitX=0.5;exitY=1;exitDx=0;exitDy=0;" parent="1" source="dbzIAWiyyoJPs32lD5O0-142" target="dbzIAWiyyoJPs32lD5O0-101" edge="1">
          <mxGeometry relative="1" as="geometry" />
        </mxCell>
        <mxCell id="dbzIAWiyyoJPs32lD5O0-141" value="" style="group" parent="1" vertex="1" connectable="0">
          <mxGeometry x="910" y="10" width="180" height="180" as="geometry" />
        </mxCell>
        <mxCell id="dbzIAWiyyoJPs32lD5O0-142" value="" style="rounded=1;whiteSpace=wrap;html=1;fillColor=#fff2cc;strokeColor=#d6b656;" parent="dbzIAWiyyoJPs32lD5O0-141" vertex="1">
          <mxGeometry x="70" y="140" width="40" height="40" as="geometry" />
        </mxCell>
        <mxCell id="dbzIAWiyyoJPs32lD5O0-143" value="" style="rounded=1;whiteSpace=wrap;html=1;fillColor=#fff2cc;strokeColor=#d6b656;" parent="dbzIAWiyyoJPs32lD5O0-141" vertex="1">
          <mxGeometry x="140" y="110" width="40" height="40" as="geometry" />
        </mxCell>
        <mxCell id="dbzIAWiyyoJPs32lD5O0-144" value="" style="rounded=0;orthogonalLoop=1;jettySize=auto;html=1;" parent="dbzIAWiyyoJPs32lD5O0-141" source="dbzIAWiyyoJPs32lD5O0-142" target="dbzIAWiyyoJPs32lD5O0-143" edge="1">
          <mxGeometry relative="1" as="geometry" />
        </mxCell>
        <mxCell id="dbzIAWiyyoJPs32lD5O0-145" value="" style="rounded=1;whiteSpace=wrap;html=1;fillColor=#fff2cc;strokeColor=#d6b656;" parent="dbzIAWiyyoJPs32lD5O0-141" vertex="1">
          <mxGeometry y="100" width="40" height="40" as="geometry" />
        </mxCell>
        <mxCell id="dbzIAWiyyoJPs32lD5O0-146" value="" style="rounded=0;orthogonalLoop=1;jettySize=auto;html=1;" parent="dbzIAWiyyoJPs32lD5O0-141" source="dbzIAWiyyoJPs32lD5O0-142" target="dbzIAWiyyoJPs32lD5O0-145" edge="1">
          <mxGeometry relative="1" as="geometry" />
        </mxCell>
        <mxCell id="dbzIAWiyyoJPs32lD5O0-147" value="" style="rounded=1;whiteSpace=wrap;html=1;fillColor=#fff2cc;strokeColor=#d6b656;" parent="dbzIAWiyyoJPs32lD5O0-141" vertex="1">
          <mxGeometry y="30" width="40" height="40" as="geometry" />
        </mxCell>
        <mxCell id="dbzIAWiyyoJPs32lD5O0-148" value="" style="rounded=0;orthogonalLoop=1;jettySize=auto;html=1;" parent="dbzIAWiyyoJPs32lD5O0-141" source="dbzIAWiyyoJPs32lD5O0-145" target="dbzIAWiyyoJPs32lD5O0-147" edge="1">
          <mxGeometry relative="1" as="geometry" />
        </mxCell>
        <mxCell id="dbzIAWiyyoJPs32lD5O0-149" value="" style="rounded=1;whiteSpace=wrap;html=1;fillColor=#fff2cc;strokeColor=#d6b656;" parent="dbzIAWiyyoJPs32lD5O0-141" vertex="1">
          <mxGeometry x="70" width="40" height="40" as="geometry" />
        </mxCell>
        <mxCell id="dbzIAWiyyoJPs32lD5O0-150" value="" style="rounded=0;orthogonalLoop=1;jettySize=auto;html=1;" parent="dbzIAWiyyoJPs32lD5O0-141" source="dbzIAWiyyoJPs32lD5O0-147" target="dbzIAWiyyoJPs32lD5O0-149" edge="1">
          <mxGeometry relative="1" as="geometry" />
        </mxCell>
        <mxCell id="dbzIAWiyyoJPs32lD5O0-151" value="" style="rounded=1;whiteSpace=wrap;html=1;fillColor=#fff2cc;strokeColor=#d6b656;" parent="dbzIAWiyyoJPs32lD5O0-141" vertex="1">
          <mxGeometry x="140" y="20" width="40" height="40" as="geometry" />
        </mxCell>
        <mxCell id="dbzIAWiyyoJPs32lD5O0-152" style="rounded=0;orthogonalLoop=1;jettySize=auto;html=1;entryX=0.5;entryY=1;entryDx=0;entryDy=0;" parent="dbzIAWiyyoJPs32lD5O0-141" source="dbzIAWiyyoJPs32lD5O0-143" target="dbzIAWiyyoJPs32lD5O0-151" edge="1">
          <mxGeometry relative="1" as="geometry" />
        </mxCell>
        <mxCell id="dbzIAWiyyoJPs32lD5O0-153" value="" style="rounded=0;orthogonalLoop=1;jettySize=auto;html=1;" parent="dbzIAWiyyoJPs32lD5O0-141" source="dbzIAWiyyoJPs32lD5O0-149" target="dbzIAWiyyoJPs32lD5O0-151" edge="1">
          <mxGeometry relative="1" as="geometry" />
        </mxCell>
        <mxCell id="r81_bSy1_nfOfyMMS9X0-1" value="" style="edgeStyle=orthogonalEdgeStyle;rounded=0;orthogonalLoop=1;jettySize=auto;html=1;" parent="1" source="r81_bSy1_nfOfyMMS9X0-2" target="r81_bSy1_nfOfyMMS9X0-4" edge="1">
          <mxGeometry relative="1" as="geometry" />
        </mxCell>
        <mxCell id="r81_bSy1_nfOfyMMS9X0-2" value="" style="rounded=1;whiteSpace=wrap;html=1;fillColor=#dae8fc;strokeColor=#6c8ebf;" parent="1" vertex="1">
          <mxGeometry x="1590" y="210" width="40" height="40" as="geometry" />
        </mxCell>
        <mxCell id="r81_bSy1_nfOfyMMS9X0-3" value="" style="edgeStyle=orthogonalEdgeStyle;rounded=0;orthogonalLoop=1;jettySize=auto;html=1;" parent="1" source="r81_bSy1_nfOfyMMS9X0-4" target="r81_bSy1_nfOfyMMS9X0-6" edge="1">
          <mxGeometry relative="1" as="geometry" />
        </mxCell>
        <mxCell id="r81_bSy1_nfOfyMMS9X0-4" value="" style="rounded=1;whiteSpace=wrap;html=1;fillColor=#dae8fc;strokeColor=#6c8ebf;" parent="1" vertex="1">
          <mxGeometry x="1710" y="210" width="40" height="40" as="geometry" />
        </mxCell>
        <mxCell id="r81_bSy1_nfOfyMMS9X0-5" value="" style="edgeStyle=orthogonalEdgeStyle;rounded=0;orthogonalLoop=1;jettySize=auto;html=1;" parent="1" source="r81_bSy1_nfOfyMMS9X0-6" target="r81_bSy1_nfOfyMMS9X0-8" edge="1">
          <mxGeometry relative="1" as="geometry" />
        </mxCell>
        <mxCell id="r81_bSy1_nfOfyMMS9X0-6" value="" style="rounded=1;whiteSpace=wrap;html=1;fillColor=#dae8fc;strokeColor=#6c8ebf;" parent="1" vertex="1">
          <mxGeometry x="1710" y="330" width="40" height="40" as="geometry" />
        </mxCell>
        <mxCell id="r81_bSy1_nfOfyMMS9X0-7" value="" style="edgeStyle=orthogonalEdgeStyle;rounded=0;orthogonalLoop=1;jettySize=auto;html=1;" parent="1" source="r81_bSy1_nfOfyMMS9X0-8" target="r81_bSy1_nfOfyMMS9X0-2" edge="1">
          <mxGeometry relative="1" as="geometry" />
        </mxCell>
        <mxCell id="r81_bSy1_nfOfyMMS9X0-8" value="" style="rounded=1;whiteSpace=wrap;html=1;fillColor=#dae8fc;strokeColor=#6c8ebf;" parent="1" vertex="1">
          <mxGeometry x="1590" y="330" width="40" height="40" as="geometry" />
        </mxCell>
        <mxCell id="r81_bSy1_nfOfyMMS9X0-9" style="edgeStyle=orthogonalEdgeStyle;rounded=0;orthogonalLoop=1;jettySize=auto;html=1;entryX=0.5;entryY=1;entryDx=0;entryDy=0;exitX=0.5;exitY=1;exitDx=0;exitDy=0;" parent="1" source="r81_bSy1_nfOfyMMS9X0-14" target="r81_bSy1_nfOfyMMS9X0-8" edge="1">
          <mxGeometry relative="1" as="geometry">
            <Array as="points">
              <mxPoint x="2010" y="110" />
              <mxPoint x="2010" y="390" />
              <mxPoint x="1610" y="390" />
            </Array>
          </mxGeometry>
        </mxCell>
        <mxCell id="r81_bSy1_nfOfyMMS9X0-10" style="rounded=0;orthogonalLoop=1;jettySize=auto;html=1;entryX=1;entryY=0.5;entryDx=0;entryDy=0;" parent="1" source="r81_bSy1_nfOfyMMS9X0-28" target="r81_bSy1_nfOfyMMS9X0-4" edge="1">
          <mxGeometry relative="1" as="geometry" />
        </mxCell>
        <mxCell id="r81_bSy1_nfOfyMMS9X0-11" style="rounded=0;orthogonalLoop=1;jettySize=auto;html=1;" parent="1" source="r81_bSy1_nfOfyMMS9X0-28" target="r81_bSy1_nfOfyMMS9X0-16" edge="1">
          <mxGeometry relative="1" as="geometry" />
        </mxCell>
        <mxCell id="r81_bSy1_nfOfyMMS9X0-43" style="rounded=0;orthogonalLoop=1;jettySize=auto;html=1;exitX=0.5;exitY=1;exitDx=0;exitDy=0;" parent="1" source="r81_bSy1_nfOfyMMS9X0-45" target="r81_bSy1_nfOfyMMS9X0-4" edge="1">
          <mxGeometry relative="1" as="geometry" />
        </mxCell>
        <mxCell id="r81_bSy1_nfOfyMMS9X0-13" value="" style="rounded=1;whiteSpace=wrap;html=1;fillColor=#dae8fc;strokeColor=#6c8ebf;" parent="1" vertex="1">
          <mxGeometry x="1917" y="100" width="40" height="40" as="geometry" />
        </mxCell>
        <mxCell id="r81_bSy1_nfOfyMMS9X0-14" value="" style="rounded=1;whiteSpace=wrap;html=1;fillColor=#dae8fc;strokeColor=#6c8ebf;" parent="1" vertex="1">
          <mxGeometry x="1987" y="70" width="40" height="40" as="geometry" />
        </mxCell>
        <mxCell id="r81_bSy1_nfOfyMMS9X0-15" value="" style="rounded=0;orthogonalLoop=1;jettySize=auto;html=1;" parent="1" source="r81_bSy1_nfOfyMMS9X0-13" target="r81_bSy1_nfOfyMMS9X0-14" edge="1">
          <mxGeometry relative="1" as="geometry" />
        </mxCell>
        <mxCell id="r81_bSy1_nfOfyMMS9X0-16" value="" style="rounded=1;whiteSpace=wrap;html=1;fillColor=#dae8fc;strokeColor=#6c8ebf;" parent="1" vertex="1">
          <mxGeometry x="1847" y="60" width="40" height="40" as="geometry" />
        </mxCell>
        <mxCell id="r81_bSy1_nfOfyMMS9X0-17" value="" style="rounded=0;orthogonalLoop=1;jettySize=auto;html=1;" parent="1" source="r81_bSy1_nfOfyMMS9X0-13" target="r81_bSy1_nfOfyMMS9X0-16" edge="1">
          <mxGeometry relative="1" as="geometry" />
        </mxCell>
        <mxCell id="r81_bSy1_nfOfyMMS9X0-18" style="rounded=0;orthogonalLoop=1;jettySize=auto;html=1;entryX=0;entryY=0.25;entryDx=0;entryDy=0;" parent="1" source="r81_bSy1_nfOfyMMS9X0-19" target="r81_bSy1_nfOfyMMS9X0-14" edge="1">
          <mxGeometry relative="1" as="geometry" />
        </mxCell>
        <mxCell id="r81_bSy1_nfOfyMMS9X0-19" value="" style="rounded=1;whiteSpace=wrap;html=1;fillColor=#dae8fc;strokeColor=#6c8ebf;" parent="1" vertex="1">
          <mxGeometry x="1847" y="-10" width="40" height="40" as="geometry" />
        </mxCell>
        <mxCell id="r81_bSy1_nfOfyMMS9X0-20" value="" style="rounded=0;orthogonalLoop=1;jettySize=auto;html=1;" parent="1" source="r81_bSy1_nfOfyMMS9X0-16" target="r81_bSy1_nfOfyMMS9X0-19" edge="1">
          <mxGeometry relative="1" as="geometry" />
        </mxCell>
        <mxCell id="r81_bSy1_nfOfyMMS9X0-21" value="" style="rounded=1;whiteSpace=wrap;html=1;fillColor=#dae8fc;strokeColor=#6c8ebf;" parent="1" vertex="1">
          <mxGeometry x="1917" y="-40" width="40" height="40" as="geometry" />
        </mxCell>
        <mxCell id="r81_bSy1_nfOfyMMS9X0-22" style="edgeStyle=orthogonalEdgeStyle;rounded=0;orthogonalLoop=1;jettySize=auto;html=1;entryX=0.5;entryY=1;entryDx=0;entryDy=0;" parent="1" source="r81_bSy1_nfOfyMMS9X0-13" target="r81_bSy1_nfOfyMMS9X0-21" edge="1">
          <mxGeometry relative="1" as="geometry" />
        </mxCell>
        <mxCell id="r81_bSy1_nfOfyMMS9X0-23" value="" style="rounded=0;orthogonalLoop=1;jettySize=auto;html=1;" parent="1" source="r81_bSy1_nfOfyMMS9X0-19" target="r81_bSy1_nfOfyMMS9X0-21" edge="1">
          <mxGeometry relative="1" as="geometry" />
        </mxCell>
        <mxCell id="r81_bSy1_nfOfyMMS9X0-24" value="" style="rounded=1;whiteSpace=wrap;html=1;fillColor=#dae8fc;strokeColor=#6c8ebf;" parent="1" vertex="1">
          <mxGeometry x="1987" y="-20" width="40" height="40" as="geometry" />
        </mxCell>
        <mxCell id="r81_bSy1_nfOfyMMS9X0-25" style="rounded=0;orthogonalLoop=1;jettySize=auto;html=1;entryX=0.5;entryY=1;entryDx=0;entryDy=0;" parent="1" source="r81_bSy1_nfOfyMMS9X0-14" target="r81_bSy1_nfOfyMMS9X0-24" edge="1">
          <mxGeometry relative="1" as="geometry" />
        </mxCell>
        <mxCell id="r81_bSy1_nfOfyMMS9X0-26" value="" style="rounded=0;orthogonalLoop=1;jettySize=auto;html=1;" parent="1" source="r81_bSy1_nfOfyMMS9X0-21" target="r81_bSy1_nfOfyMMS9X0-24" edge="1">
          <mxGeometry relative="1" as="geometry" />
        </mxCell>
        <mxCell id="r81_bSy1_nfOfyMMS9X0-28" value="" style="rounded=1;whiteSpace=wrap;html=1;fillColor=#dae8fc;strokeColor=#6c8ebf;" parent="1" vertex="1">
          <mxGeometry x="1660" y="-20" width="40" height="40" as="geometry" />
        </mxCell>
        <mxCell id="r81_bSy1_nfOfyMMS9X0-29" value="" style="rounded=1;whiteSpace=wrap;html=1;fillColor=#dae8fc;strokeColor=#6c8ebf;" parent="1" vertex="1">
          <mxGeometry x="1600" y="60" width="40" height="40" as="geometry" />
        </mxCell>
        <mxCell id="r81_bSy1_nfOfyMMS9X0-30" value="" style="rounded=0;orthogonalLoop=1;jettySize=auto;html=1;" parent="1" source="r81_bSy1_nfOfyMMS9X0-28" target="r81_bSy1_nfOfyMMS9X0-29" edge="1">
          <mxGeometry relative="1" as="geometry" />
        </mxCell>
        <mxCell id="r81_bSy1_nfOfyMMS9X0-31" style="rounded=0;orthogonalLoop=1;jettySize=auto;html=1;exitX=0.5;exitY=0;exitDx=0;exitDy=0;" parent="1" source="r81_bSy1_nfOfyMMS9X0-32" target="r81_bSy1_nfOfyMMS9X0-28" edge="1">
          <mxGeometry relative="1" as="geometry" />
        </mxCell>
        <mxCell id="r81_bSy1_nfOfyMMS9X0-32" value="" style="rounded=1;whiteSpace=wrap;html=1;fillColor=#dae8fc;strokeColor=#6c8ebf;" parent="1" vertex="1">
          <mxGeometry x="1720" y="60" width="40" height="40" as="geometry" />
        </mxCell>
        <mxCell id="r81_bSy1_nfOfyMMS9X0-33" value="" style="rounded=0;orthogonalLoop=1;jettySize=auto;html=1;" parent="1" source="r81_bSy1_nfOfyMMS9X0-29" target="r81_bSy1_nfOfyMMS9X0-32" edge="1">
          <mxGeometry relative="1" as="geometry" />
        </mxCell>
        <mxCell id="r81_bSy1_nfOfyMMS9X0-45" value="" style="rounded=1;whiteSpace=wrap;html=1;fillColor=#dae8fc;strokeColor=#6c8ebf;" parent="1" vertex="1">
          <mxGeometry x="1590" y="150" width="40" height="40" as="geometry" />
        </mxCell>
        <mxCell id="r81_bSy1_nfOfyMMS9X0-46" value="" style="rounded=1;whiteSpace=wrap;html=1;fillColor=#dae8fc;strokeColor=#6c8ebf;" parent="1" vertex="1">
          <mxGeometry x="1660" y="120" width="40" height="40" as="geometry" />
        </mxCell>
        <mxCell id="r81_bSy1_nfOfyMMS9X0-47" value="" style="rounded=0;orthogonalLoop=1;jettySize=auto;html=1;" parent="1" source="r81_bSy1_nfOfyMMS9X0-45" target="r81_bSy1_nfOfyMMS9X0-46" edge="1">
          <mxGeometry relative="1" as="geometry" />
        </mxCell>
        <mxCell id="r81_bSy1_nfOfyMMS9X0-48" value="" style="rounded=1;whiteSpace=wrap;html=1;fillColor=#dae8fc;strokeColor=#6c8ebf;" parent="1" vertex="1">
          <mxGeometry x="1520" y="110" width="40" height="40" as="geometry" />
        </mxCell>
        <mxCell id="r81_bSy1_nfOfyMMS9X0-49" value="" style="rounded=0;orthogonalLoop=1;jettySize=auto;html=1;" parent="1" source="r81_bSy1_nfOfyMMS9X0-45" target="r81_bSy1_nfOfyMMS9X0-48" edge="1">
          <mxGeometry relative="1" as="geometry" />
        </mxCell>
        <mxCell id="r81_bSy1_nfOfyMMS9X0-50" value="" style="rounded=1;whiteSpace=wrap;html=1;fillColor=#dae8fc;strokeColor=#6c8ebf;" parent="1" vertex="1">
          <mxGeometry x="1520" y="40" width="40" height="40" as="geometry" />
        </mxCell>
        <mxCell id="r81_bSy1_nfOfyMMS9X0-51" value="" style="rounded=0;orthogonalLoop=1;jettySize=auto;html=1;" parent="1" source="r81_bSy1_nfOfyMMS9X0-48" target="r81_bSy1_nfOfyMMS9X0-50" edge="1">
          <mxGeometry relative="1" as="geometry" />
        </mxCell>
        <mxCell id="r81_bSy1_nfOfyMMS9X0-52" value="" style="rounded=1;whiteSpace=wrap;html=1;fillColor=#dae8fc;strokeColor=#6c8ebf;" parent="1" vertex="1">
          <mxGeometry x="1590" y="10" width="40" height="40" as="geometry" />
        </mxCell>
        <mxCell id="r81_bSy1_nfOfyMMS9X0-53" value="" style="rounded=0;orthogonalLoop=1;jettySize=auto;html=1;" parent="1" source="r81_bSy1_nfOfyMMS9X0-50" target="r81_bSy1_nfOfyMMS9X0-52" edge="1">
          <mxGeometry relative="1" as="geometry" />
        </mxCell>
        <mxCell id="r81_bSy1_nfOfyMMS9X0-54" value="" style="rounded=1;whiteSpace=wrap;html=1;fillColor=#dae8fc;strokeColor=#6c8ebf;" parent="1" vertex="1">
          <mxGeometry x="1660" y="30" width="40" height="40" as="geometry" />
        </mxCell>
        <mxCell id="r81_bSy1_nfOfyMMS9X0-55" style="rounded=0;orthogonalLoop=1;jettySize=auto;html=1;entryX=0.5;entryY=1;entryDx=0;entryDy=0;" parent="1" source="r81_bSy1_nfOfyMMS9X0-46" target="r81_bSy1_nfOfyMMS9X0-54" edge="1">
          <mxGeometry relative="1" as="geometry" />
        </mxCell>
        <mxCell id="r81_bSy1_nfOfyMMS9X0-56" value="" style="rounded=0;orthogonalLoop=1;jettySize=auto;html=1;" parent="1" source="r81_bSy1_nfOfyMMS9X0-52" target="r81_bSy1_nfOfyMMS9X0-54" edge="1">
          <mxGeometry relative="1" as="geometry" />
        </mxCell>
        <mxCell id="r81_bSy1_nfOfyMMS9X0-168" style="edgeStyle=none;shape=connector;rounded=0;orthogonalLoop=1;jettySize=auto;html=1;entryX=0;entryY=0.25;entryDx=0;entryDy=0;labelBackgroundColor=default;strokeColor=default;align=center;verticalAlign=middle;fontFamily=Helvetica;fontSize=11;fontColor=default;endArrow=classic;" parent="1" source="r81_bSy1_nfOfyMMS9X0-35" target="r81_bSy1_nfOfyMMS9X0-2" edge="1">
          <mxGeometry relative="1" as="geometry" />
        </mxCell>
        <mxCell id="r81_bSy1_nfOfyMMS9X0-35" value="" style="rounded=1;whiteSpace=wrap;html=1;fillColor=#dae8fc;strokeColor=#6c8ebf;" parent="1" vertex="1">
          <mxGeometry x="1530" y="160" width="40" height="40" as="geometry" />
        </mxCell>
        <mxCell id="r81_bSy1_nfOfyMMS9X0-36" value="" style="rounded=1;whiteSpace=wrap;html=1;fillColor=#dae8fc;strokeColor=#6c8ebf;" parent="1" vertex="1">
          <mxGeometry x="1650" y="160" width="40" height="40" as="geometry" />
        </mxCell>
        <mxCell id="r81_bSy1_nfOfyMMS9X0-37" value="" style="edgeStyle=orthogonalEdgeStyle;rounded=0;orthogonalLoop=1;jettySize=auto;html=1;" parent="1" source="r81_bSy1_nfOfyMMS9X0-35" target="r81_bSy1_nfOfyMMS9X0-36" edge="1">
          <mxGeometry relative="1" as="geometry" />
        </mxCell>
        <mxCell id="r81_bSy1_nfOfyMMS9X0-38" value="" style="rounded=1;whiteSpace=wrap;html=1;fillColor=#dae8fc;strokeColor=#6c8ebf;" parent="1" vertex="1">
          <mxGeometry x="1650" y="280" width="40" height="40" as="geometry" />
        </mxCell>
        <mxCell id="r81_bSy1_nfOfyMMS9X0-39" value="" style="edgeStyle=orthogonalEdgeStyle;rounded=0;orthogonalLoop=1;jettySize=auto;html=1;" parent="1" source="r81_bSy1_nfOfyMMS9X0-36" target="r81_bSy1_nfOfyMMS9X0-38" edge="1">
          <mxGeometry relative="1" as="geometry" />
        </mxCell>
        <mxCell id="r81_bSy1_nfOfyMMS9X0-40" value="" style="edgeStyle=orthogonalEdgeStyle;rounded=0;orthogonalLoop=1;jettySize=auto;html=1;" parent="1" source="r81_bSy1_nfOfyMMS9X0-41" target="r81_bSy1_nfOfyMMS9X0-35" edge="1">
          <mxGeometry relative="1" as="geometry" />
        </mxCell>
        <mxCell id="r81_bSy1_nfOfyMMS9X0-41" value="" style="rounded=1;whiteSpace=wrap;html=1;fillColor=#dae8fc;strokeColor=#6c8ebf;" parent="1" vertex="1">
          <mxGeometry x="1530" y="280" width="40" height="40" as="geometry" />
        </mxCell>
        <mxCell id="r81_bSy1_nfOfyMMS9X0-42" value="" style="edgeStyle=orthogonalEdgeStyle;rounded=0;orthogonalLoop=1;jettySize=auto;html=1;" parent="1" source="r81_bSy1_nfOfyMMS9X0-38" target="r81_bSy1_nfOfyMMS9X0-41" edge="1">
          <mxGeometry relative="1" as="geometry" />
        </mxCell>
        <mxCell id="r81_bSy1_nfOfyMMS9X0-57" value="" style="edgeStyle=orthogonalEdgeStyle;rounded=0;orthogonalLoop=1;jettySize=auto;html=1;" parent="1" source="r81_bSy1_nfOfyMMS9X0-58" target="r81_bSy1_nfOfyMMS9X0-60" edge="1">
          <mxGeometry relative="1" as="geometry" />
        </mxCell>
        <mxCell id="r81_bSy1_nfOfyMMS9X0-58" value="" style="rounded=1;whiteSpace=wrap;html=1;fillColor=#dae8fc;strokeColor=#6c8ebf;" parent="1" vertex="1">
          <mxGeometry x="2230" y="210" width="40" height="40" as="geometry" />
        </mxCell>
        <mxCell id="r81_bSy1_nfOfyMMS9X0-59" value="" style="edgeStyle=orthogonalEdgeStyle;rounded=0;orthogonalLoop=1;jettySize=auto;html=1;" parent="1" source="r81_bSy1_nfOfyMMS9X0-60" target="r81_bSy1_nfOfyMMS9X0-62" edge="1">
          <mxGeometry relative="1" as="geometry" />
        </mxCell>
        <mxCell id="r81_bSy1_nfOfyMMS9X0-60" value="" style="rounded=1;whiteSpace=wrap;html=1;fillColor=#dae8fc;strokeColor=#6c8ebf;" parent="1" vertex="1">
          <mxGeometry x="2350" y="210" width="40" height="40" as="geometry" />
        </mxCell>
        <mxCell id="r81_bSy1_nfOfyMMS9X0-61" value="" style="edgeStyle=orthogonalEdgeStyle;rounded=0;orthogonalLoop=1;jettySize=auto;html=1;" parent="1" source="r81_bSy1_nfOfyMMS9X0-62" target="r81_bSy1_nfOfyMMS9X0-64" edge="1">
          <mxGeometry relative="1" as="geometry" />
        </mxCell>
        <mxCell id="r81_bSy1_nfOfyMMS9X0-62" value="" style="rounded=1;whiteSpace=wrap;html=1;fillColor=#dae8fc;strokeColor=#6c8ebf;" parent="1" vertex="1">
          <mxGeometry x="2350" y="330" width="40" height="40" as="geometry" />
        </mxCell>
        <mxCell id="r81_bSy1_nfOfyMMS9X0-63" value="" style="edgeStyle=orthogonalEdgeStyle;rounded=0;orthogonalLoop=1;jettySize=auto;html=1;" parent="1" source="r81_bSy1_nfOfyMMS9X0-64" target="r81_bSy1_nfOfyMMS9X0-58" edge="1">
          <mxGeometry relative="1" as="geometry" />
        </mxCell>
        <mxCell id="r81_bSy1_nfOfyMMS9X0-64" value="" style="rounded=1;whiteSpace=wrap;html=1;fillColor=#dae8fc;strokeColor=#6c8ebf;" parent="1" vertex="1">
          <mxGeometry x="2230" y="330" width="40" height="40" as="geometry" />
        </mxCell>
        <mxCell id="r81_bSy1_nfOfyMMS9X0-65" style="edgeStyle=orthogonalEdgeStyle;rounded=0;orthogonalLoop=1;jettySize=auto;html=1;entryX=0.5;entryY=1;entryDx=0;entryDy=0;" parent="1" target="r81_bSy1_nfOfyMMS9X0-64" edge="1">
          <mxGeometry relative="1" as="geometry">
            <mxPoint x="2570" y="250" as="sourcePoint" />
            <Array as="points">
              <mxPoint x="2570" y="240" />
              <mxPoint x="2570" y="380" />
              <mxPoint x="2250" y="380" />
            </Array>
          </mxGeometry>
        </mxCell>
        <mxCell id="r81_bSy1_nfOfyMMS9X0-66" style="rounded=0;orthogonalLoop=1;jettySize=auto;html=1;entryX=1;entryY=0.5;entryDx=0;entryDy=0;" parent="1" source="r81_bSy1_nfOfyMMS9X0-83" target="r81_bSy1_nfOfyMMS9X0-60" edge="1">
          <mxGeometry relative="1" as="geometry" />
        </mxCell>
        <mxCell id="r81_bSy1_nfOfyMMS9X0-67" style="rounded=0;orthogonalLoop=1;jettySize=auto;html=1;" parent="1" source="r81_bSy1_nfOfyMMS9X0-83" target="r81_bSy1_nfOfyMMS9X0-72" edge="1">
          <mxGeometry relative="1" as="geometry" />
        </mxCell>
        <mxCell id="r81_bSy1_nfOfyMMS9X0-68" style="rounded=0;orthogonalLoop=1;jettySize=auto;html=1;exitX=0.5;exitY=1;exitDx=0;exitDy=0;" parent="1" source="r81_bSy1_nfOfyMMS9X0-89" target="r81_bSy1_nfOfyMMS9X0-60" edge="1">
          <mxGeometry relative="1" as="geometry" />
        </mxCell>
        <mxCell id="r81_bSy1_nfOfyMMS9X0-69" value="" style="rounded=1;whiteSpace=wrap;html=1;fillColor=#dae8fc;strokeColor=#6c8ebf;" parent="1" vertex="1">
          <mxGeometry x="2480" y="230" width="40" height="40" as="geometry" />
        </mxCell>
        <mxCell id="r81_bSy1_nfOfyMMS9X0-70" value="" style="rounded=1;whiteSpace=wrap;html=1;fillColor=#dae8fc;strokeColor=#6c8ebf;" parent="1" vertex="1">
          <mxGeometry x="2550" y="200" width="40" height="40" as="geometry" />
        </mxCell>
        <mxCell id="r81_bSy1_nfOfyMMS9X0-71" value="" style="rounded=0;orthogonalLoop=1;jettySize=auto;html=1;" parent="1" source="r81_bSy1_nfOfyMMS9X0-69" target="r81_bSy1_nfOfyMMS9X0-70" edge="1">
          <mxGeometry relative="1" as="geometry" />
        </mxCell>
        <mxCell id="r81_bSy1_nfOfyMMS9X0-72" value="" style="rounded=1;whiteSpace=wrap;html=1;fillColor=#dae8fc;strokeColor=#6c8ebf;" parent="1" vertex="1">
          <mxGeometry x="2410" y="190" width="40" height="40" as="geometry" />
        </mxCell>
        <mxCell id="r81_bSy1_nfOfyMMS9X0-73" value="" style="rounded=0;orthogonalLoop=1;jettySize=auto;html=1;" parent="1" source="r81_bSy1_nfOfyMMS9X0-69" target="r81_bSy1_nfOfyMMS9X0-72" edge="1">
          <mxGeometry relative="1" as="geometry" />
        </mxCell>
        <mxCell id="r81_bSy1_nfOfyMMS9X0-74" style="rounded=0;orthogonalLoop=1;jettySize=auto;html=1;entryX=0;entryY=0.25;entryDx=0;entryDy=0;" parent="1" source="r81_bSy1_nfOfyMMS9X0-75" target="r81_bSy1_nfOfyMMS9X0-70" edge="1">
          <mxGeometry relative="1" as="geometry" />
        </mxCell>
        <mxCell id="r81_bSy1_nfOfyMMS9X0-75" value="" style="rounded=1;whiteSpace=wrap;html=1;fillColor=#dae8fc;strokeColor=#6c8ebf;" parent="1" vertex="1">
          <mxGeometry x="2410" y="120" width="40" height="40" as="geometry" />
        </mxCell>
        <mxCell id="r81_bSy1_nfOfyMMS9X0-76" value="" style="rounded=0;orthogonalLoop=1;jettySize=auto;html=1;" parent="1" source="r81_bSy1_nfOfyMMS9X0-72" target="r81_bSy1_nfOfyMMS9X0-75" edge="1">
          <mxGeometry relative="1" as="geometry" />
        </mxCell>
        <mxCell id="r81_bSy1_nfOfyMMS9X0-77" value="" style="rounded=1;whiteSpace=wrap;html=1;fillColor=#dae8fc;strokeColor=#6c8ebf;" parent="1" vertex="1">
          <mxGeometry x="2480" y="90" width="40" height="40" as="geometry" />
        </mxCell>
        <mxCell id="r81_bSy1_nfOfyMMS9X0-78" style="edgeStyle=orthogonalEdgeStyle;rounded=0;orthogonalLoop=1;jettySize=auto;html=1;entryX=0.5;entryY=1;entryDx=0;entryDy=0;" parent="1" source="r81_bSy1_nfOfyMMS9X0-69" target="r81_bSy1_nfOfyMMS9X0-77" edge="1">
          <mxGeometry relative="1" as="geometry" />
        </mxCell>
        <mxCell id="r81_bSy1_nfOfyMMS9X0-79" value="" style="rounded=0;orthogonalLoop=1;jettySize=auto;html=1;" parent="1" source="r81_bSy1_nfOfyMMS9X0-75" target="r81_bSy1_nfOfyMMS9X0-77" edge="1">
          <mxGeometry relative="1" as="geometry" />
        </mxCell>
        <mxCell id="r81_bSy1_nfOfyMMS9X0-80" value="" style="rounded=1;whiteSpace=wrap;html=1;fillColor=#dae8fc;strokeColor=#6c8ebf;" parent="1" vertex="1">
          <mxGeometry x="2550" y="110" width="40" height="40" as="geometry" />
        </mxCell>
        <mxCell id="r81_bSy1_nfOfyMMS9X0-81" style="rounded=0;orthogonalLoop=1;jettySize=auto;html=1;entryX=0.5;entryY=1;entryDx=0;entryDy=0;" parent="1" source="r81_bSy1_nfOfyMMS9X0-70" target="r81_bSy1_nfOfyMMS9X0-80" edge="1">
          <mxGeometry relative="1" as="geometry" />
        </mxCell>
        <mxCell id="r81_bSy1_nfOfyMMS9X0-82" value="" style="rounded=0;orthogonalLoop=1;jettySize=auto;html=1;" parent="1" source="r81_bSy1_nfOfyMMS9X0-77" target="r81_bSy1_nfOfyMMS9X0-80" edge="1">
          <mxGeometry relative="1" as="geometry" />
        </mxCell>
        <mxCell id="r81_bSy1_nfOfyMMS9X0-83" value="" style="rounded=1;whiteSpace=wrap;html=1;fillColor=#dae8fc;strokeColor=#6c8ebf;" parent="1" vertex="1">
          <mxGeometry x="2300" y="-20" width="40" height="40" as="geometry" />
        </mxCell>
        <mxCell id="r81_bSy1_nfOfyMMS9X0-84" value="" style="rounded=1;whiteSpace=wrap;html=1;fillColor=#dae8fc;strokeColor=#6c8ebf;" parent="1" vertex="1">
          <mxGeometry x="2240" y="60" width="40" height="40" as="geometry" />
        </mxCell>
        <mxCell id="r81_bSy1_nfOfyMMS9X0-85" value="" style="rounded=0;orthogonalLoop=1;jettySize=auto;html=1;" parent="1" source="r81_bSy1_nfOfyMMS9X0-83" target="r81_bSy1_nfOfyMMS9X0-84" edge="1">
          <mxGeometry relative="1" as="geometry" />
        </mxCell>
        <mxCell id="r81_bSy1_nfOfyMMS9X0-86" style="rounded=0;orthogonalLoop=1;jettySize=auto;html=1;exitX=0.5;exitY=0;exitDx=0;exitDy=0;" parent="1" source="r81_bSy1_nfOfyMMS9X0-87" target="r81_bSy1_nfOfyMMS9X0-83" edge="1">
          <mxGeometry relative="1" as="geometry" />
        </mxCell>
        <mxCell id="r81_bSy1_nfOfyMMS9X0-87" value="" style="rounded=1;whiteSpace=wrap;html=1;fillColor=#dae8fc;strokeColor=#6c8ebf;" parent="1" vertex="1">
          <mxGeometry x="2360" y="60" width="40" height="40" as="geometry" />
        </mxCell>
        <mxCell id="r81_bSy1_nfOfyMMS9X0-88" value="" style="rounded=0;orthogonalLoop=1;jettySize=auto;html=1;" parent="1" source="r81_bSy1_nfOfyMMS9X0-84" target="r81_bSy1_nfOfyMMS9X0-87" edge="1">
          <mxGeometry relative="1" as="geometry" />
        </mxCell>
        <mxCell id="r81_bSy1_nfOfyMMS9X0-89" value="" style="rounded=1;whiteSpace=wrap;html=1;fillColor=#dae8fc;strokeColor=#6c8ebf;" parent="1" vertex="1">
          <mxGeometry x="2230" y="150" width="40" height="40" as="geometry" />
        </mxCell>
        <mxCell id="r81_bSy1_nfOfyMMS9X0-90" value="" style="rounded=1;whiteSpace=wrap;html=1;fillColor=#dae8fc;strokeColor=#6c8ebf;" parent="1" vertex="1">
          <mxGeometry x="2300" y="120" width="40" height="40" as="geometry" />
        </mxCell>
        <mxCell id="r81_bSy1_nfOfyMMS9X0-91" value="" style="rounded=0;orthogonalLoop=1;jettySize=auto;html=1;" parent="1" source="r81_bSy1_nfOfyMMS9X0-89" target="r81_bSy1_nfOfyMMS9X0-90" edge="1">
          <mxGeometry relative="1" as="geometry" />
        </mxCell>
        <mxCell id="r81_bSy1_nfOfyMMS9X0-92" value="" style="rounded=1;whiteSpace=wrap;html=1;fillColor=#dae8fc;strokeColor=#6c8ebf;" parent="1" vertex="1">
          <mxGeometry x="2160" y="110" width="40" height="40" as="geometry" />
        </mxCell>
        <mxCell id="r81_bSy1_nfOfyMMS9X0-93" value="" style="rounded=0;orthogonalLoop=1;jettySize=auto;html=1;" parent="1" source="r81_bSy1_nfOfyMMS9X0-89" target="r81_bSy1_nfOfyMMS9X0-92" edge="1">
          <mxGeometry relative="1" as="geometry" />
        </mxCell>
        <mxCell id="r81_bSy1_nfOfyMMS9X0-94" value="" style="rounded=1;whiteSpace=wrap;html=1;fillColor=#dae8fc;strokeColor=#6c8ebf;" parent="1" vertex="1">
          <mxGeometry x="2160" y="40" width="40" height="40" as="geometry" />
        </mxCell>
        <mxCell id="r81_bSy1_nfOfyMMS9X0-95" value="" style="rounded=0;orthogonalLoop=1;jettySize=auto;html=1;" parent="1" source="r81_bSy1_nfOfyMMS9X0-92" target="r81_bSy1_nfOfyMMS9X0-94" edge="1">
          <mxGeometry relative="1" as="geometry" />
        </mxCell>
        <mxCell id="r81_bSy1_nfOfyMMS9X0-96" value="" style="rounded=1;whiteSpace=wrap;html=1;fillColor=#dae8fc;strokeColor=#6c8ebf;" parent="1" vertex="1">
          <mxGeometry x="2230" y="10" width="40" height="40" as="geometry" />
        </mxCell>
        <mxCell id="r81_bSy1_nfOfyMMS9X0-97" value="" style="rounded=0;orthogonalLoop=1;jettySize=auto;html=1;" parent="1" source="r81_bSy1_nfOfyMMS9X0-94" target="r81_bSy1_nfOfyMMS9X0-96" edge="1">
          <mxGeometry relative="1" as="geometry" />
        </mxCell>
        <mxCell id="r81_bSy1_nfOfyMMS9X0-98" value="" style="rounded=1;whiteSpace=wrap;html=1;fillColor=#dae8fc;strokeColor=#6c8ebf;" parent="1" vertex="1">
          <mxGeometry x="2300" y="30" width="40" height="40" as="geometry" />
        </mxCell>
        <mxCell id="r81_bSy1_nfOfyMMS9X0-99" style="rounded=0;orthogonalLoop=1;jettySize=auto;html=1;entryX=0.5;entryY=1;entryDx=0;entryDy=0;" parent="1" source="r81_bSy1_nfOfyMMS9X0-90" target="r81_bSy1_nfOfyMMS9X0-98" edge="1">
          <mxGeometry relative="1" as="geometry" />
        </mxCell>
        <mxCell id="r81_bSy1_nfOfyMMS9X0-100" value="" style="rounded=0;orthogonalLoop=1;jettySize=auto;html=1;" parent="1" source="r81_bSy1_nfOfyMMS9X0-96" target="r81_bSy1_nfOfyMMS9X0-98" edge="1">
          <mxGeometry relative="1" as="geometry" />
        </mxCell>
        <mxCell id="r81_bSy1_nfOfyMMS9X0-101" value="" style="rounded=1;whiteSpace=wrap;html=1;fillColor=#dae8fc;strokeColor=#6c8ebf;" parent="1" vertex="1">
          <mxGeometry x="2170" y="160" width="40" height="40" as="geometry" />
        </mxCell>
        <mxCell id="r81_bSy1_nfOfyMMS9X0-102" value="" style="rounded=1;whiteSpace=wrap;html=1;fillColor=#dae8fc;strokeColor=#6c8ebf;" parent="1" vertex="1">
          <mxGeometry x="2290" y="160" width="40" height="40" as="geometry" />
        </mxCell>
        <mxCell id="r81_bSy1_nfOfyMMS9X0-103" value="" style="edgeStyle=orthogonalEdgeStyle;rounded=0;orthogonalLoop=1;jettySize=auto;html=1;" parent="1" source="r81_bSy1_nfOfyMMS9X0-101" target="r81_bSy1_nfOfyMMS9X0-102" edge="1">
          <mxGeometry relative="1" as="geometry" />
        </mxCell>
        <mxCell id="r81_bSy1_nfOfyMMS9X0-104" value="" style="rounded=1;whiteSpace=wrap;html=1;fillColor=#dae8fc;strokeColor=#6c8ebf;" parent="1" vertex="1">
          <mxGeometry x="2290" y="280" width="40" height="40" as="geometry" />
        </mxCell>
        <mxCell id="r81_bSy1_nfOfyMMS9X0-105" value="" style="edgeStyle=orthogonalEdgeStyle;rounded=0;orthogonalLoop=1;jettySize=auto;html=1;" parent="1" source="r81_bSy1_nfOfyMMS9X0-102" target="r81_bSy1_nfOfyMMS9X0-104" edge="1">
          <mxGeometry relative="1" as="geometry" />
        </mxCell>
        <mxCell id="r81_bSy1_nfOfyMMS9X0-106" value="" style="edgeStyle=orthogonalEdgeStyle;rounded=0;orthogonalLoop=1;jettySize=auto;html=1;" parent="1" source="r81_bSy1_nfOfyMMS9X0-107" target="r81_bSy1_nfOfyMMS9X0-101" edge="1">
          <mxGeometry relative="1" as="geometry" />
        </mxCell>
        <mxCell id="r81_bSy1_nfOfyMMS9X0-107" value="" style="rounded=1;whiteSpace=wrap;html=1;fillColor=#dae8fc;strokeColor=#6c8ebf;" parent="1" vertex="1">
          <mxGeometry x="2170" y="280" width="40" height="40" as="geometry" />
        </mxCell>
        <mxCell id="r81_bSy1_nfOfyMMS9X0-108" value="" style="edgeStyle=orthogonalEdgeStyle;rounded=0;orthogonalLoop=1;jettySize=auto;html=1;" parent="1" source="r81_bSy1_nfOfyMMS9X0-104" target="r81_bSy1_nfOfyMMS9X0-107" edge="1">
          <mxGeometry relative="1" as="geometry" />
        </mxCell>
        <mxCell id="r81_bSy1_nfOfyMMS9X0-109" value="" style="edgeStyle=orthogonalEdgeStyle;rounded=0;orthogonalLoop=1;jettySize=auto;html=1;" parent="1" source="r81_bSy1_nfOfyMMS9X0-110" target="r81_bSy1_nfOfyMMS9X0-112" edge="1">
          <mxGeometry relative="1" as="geometry" />
        </mxCell>
        <mxCell id="r81_bSy1_nfOfyMMS9X0-165" style="edgeStyle=none;shape=connector;rounded=0;orthogonalLoop=1;jettySize=auto;html=1;entryX=0;entryY=0;entryDx=0;entryDy=0;labelBackgroundColor=default;strokeColor=default;align=center;verticalAlign=middle;fontFamily=Helvetica;fontSize=11;fontColor=default;endArrow=classic;" parent="1" source="r81_bSy1_nfOfyMMS9X0-110" target="r81_bSy1_nfOfyMMS9X0-146" edge="1">
          <mxGeometry relative="1" as="geometry" />
        </mxCell>
        <mxCell id="r81_bSy1_nfOfyMMS9X0-110" value="" style="rounded=1;whiteSpace=wrap;html=1;fillColor=#dae8fc;strokeColor=#6c8ebf;" parent="1" vertex="1">
          <mxGeometry x="-190" y="210" width="40" height="40" as="geometry" />
        </mxCell>
        <mxCell id="r81_bSy1_nfOfyMMS9X0-111" value="" style="edgeStyle=orthogonalEdgeStyle;rounded=0;orthogonalLoop=1;jettySize=auto;html=1;" parent="1" source="r81_bSy1_nfOfyMMS9X0-112" target="r81_bSy1_nfOfyMMS9X0-114" edge="1">
          <mxGeometry relative="1" as="geometry" />
        </mxCell>
        <mxCell id="r81_bSy1_nfOfyMMS9X0-112" value="" style="rounded=1;whiteSpace=wrap;html=1;fillColor=#dae8fc;strokeColor=#6c8ebf;strokeWidth=3;" parent="1" vertex="1">
          <mxGeometry x="-70" y="210" width="40" height="40" as="geometry" />
        </mxCell>
        <mxCell id="r81_bSy1_nfOfyMMS9X0-113" value="" style="edgeStyle=orthogonalEdgeStyle;rounded=0;orthogonalLoop=1;jettySize=auto;html=1;" parent="1" source="r81_bSy1_nfOfyMMS9X0-114" target="r81_bSy1_nfOfyMMS9X0-116" edge="1">
          <mxGeometry relative="1" as="geometry" />
        </mxCell>
        <mxCell id="r81_bSy1_nfOfyMMS9X0-114" value="" style="rounded=1;whiteSpace=wrap;html=1;fillColor=#dae8fc;strokeColor=#6c8ebf;" parent="1" vertex="1">
          <mxGeometry x="-70" y="330" width="40" height="40" as="geometry" />
        </mxCell>
        <mxCell id="r81_bSy1_nfOfyMMS9X0-115" value="" style="edgeStyle=orthogonalEdgeStyle;rounded=0;orthogonalLoop=1;jettySize=auto;html=1;" parent="1" source="r81_bSy1_nfOfyMMS9X0-116" target="r81_bSy1_nfOfyMMS9X0-110" edge="1">
          <mxGeometry relative="1" as="geometry" />
        </mxCell>
        <mxCell id="r81_bSy1_nfOfyMMS9X0-116" value="" style="rounded=1;whiteSpace=wrap;html=1;fillColor=#dae8fc;strokeColor=#6c8ebf;strokeWidth=3;" parent="1" vertex="1">
          <mxGeometry x="-190" y="330" width="40" height="40" as="geometry" />
        </mxCell>
        <mxCell id="r81_bSy1_nfOfyMMS9X0-117" style="edgeStyle=orthogonalEdgeStyle;rounded=0;orthogonalLoop=1;jettySize=auto;html=1;entryX=0.5;entryY=1;entryDx=0;entryDy=0;exitX=0.5;exitY=1;exitDx=0;exitDy=0;" parent="1" source="r81_bSy1_nfOfyMMS9X0-122" target="r81_bSy1_nfOfyMMS9X0-116" edge="1">
          <mxGeometry relative="1" as="geometry">
            <Array as="points">
              <mxPoint x="237" y="430" />
              <mxPoint x="-170" y="430" />
            </Array>
          </mxGeometry>
        </mxCell>
        <mxCell id="r81_bSy1_nfOfyMMS9X0-118" style="rounded=0;orthogonalLoop=1;jettySize=auto;html=1;entryX=1;entryY=0.5;entryDx=0;entryDy=0;" parent="1" source="r81_bSy1_nfOfyMMS9X0-136" target="r81_bSy1_nfOfyMMS9X0-112" edge="1">
          <mxGeometry relative="1" as="geometry" />
        </mxCell>
        <mxCell id="r81_bSy1_nfOfyMMS9X0-119" style="rounded=0;orthogonalLoop=1;jettySize=auto;html=1;" parent="1" source="r81_bSy1_nfOfyMMS9X0-136" target="r81_bSy1_nfOfyMMS9X0-124" edge="1">
          <mxGeometry relative="1" as="geometry" />
        </mxCell>
        <mxCell id="r81_bSy1_nfOfyMMS9X0-120" value="" style="group" parent="1" vertex="1" connectable="0">
          <mxGeometry x="77" y="-50" width="180" height="180" as="geometry" />
        </mxCell>
        <mxCell id="r81_bSy1_nfOfyMMS9X0-121" value="" style="rounded=1;whiteSpace=wrap;html=1;fillColor=#d5e8d4;strokeColor=#82b366;" parent="r81_bSy1_nfOfyMMS9X0-120" vertex="1">
          <mxGeometry x="70" y="140" width="40" height="40" as="geometry" />
        </mxCell>
        <mxCell id="r81_bSy1_nfOfyMMS9X0-122" value="" style="rounded=1;whiteSpace=wrap;html=1;fillColor=#d5e8d4;strokeColor=#82b366;strokeWidth=3;" parent="r81_bSy1_nfOfyMMS9X0-120" vertex="1">
          <mxGeometry x="140" y="110" width="40" height="40" as="geometry" />
        </mxCell>
        <mxCell id="r81_bSy1_nfOfyMMS9X0-123" value="" style="rounded=0;orthogonalLoop=1;jettySize=auto;html=1;" parent="r81_bSy1_nfOfyMMS9X0-120" source="r81_bSy1_nfOfyMMS9X0-121" target="r81_bSy1_nfOfyMMS9X0-122" edge="1">
          <mxGeometry relative="1" as="geometry" />
        </mxCell>
        <mxCell id="r81_bSy1_nfOfyMMS9X0-124" value="" style="rounded=1;whiteSpace=wrap;html=1;fillColor=#d5e8d4;strokeColor=#82b366;strokeWidth=3;" parent="r81_bSy1_nfOfyMMS9X0-120" vertex="1">
          <mxGeometry y="100" width="40" height="40" as="geometry" />
        </mxCell>
        <mxCell id="r81_bSy1_nfOfyMMS9X0-125" value="" style="rounded=0;orthogonalLoop=1;jettySize=auto;html=1;" parent="r81_bSy1_nfOfyMMS9X0-120" source="r81_bSy1_nfOfyMMS9X0-121" target="r81_bSy1_nfOfyMMS9X0-124" edge="1">
          <mxGeometry relative="1" as="geometry" />
        </mxCell>
        <mxCell id="r81_bSy1_nfOfyMMS9X0-126" style="rounded=0;orthogonalLoop=1;jettySize=auto;html=1;entryX=0;entryY=0.25;entryDx=0;entryDy=0;" parent="r81_bSy1_nfOfyMMS9X0-120" source="r81_bSy1_nfOfyMMS9X0-127" target="r81_bSy1_nfOfyMMS9X0-122" edge="1">
          <mxGeometry relative="1" as="geometry" />
        </mxCell>
        <mxCell id="r81_bSy1_nfOfyMMS9X0-127" value="" style="rounded=1;whiteSpace=wrap;html=1;fillColor=#d5e8d4;strokeColor=#82b366;" parent="r81_bSy1_nfOfyMMS9X0-120" vertex="1">
          <mxGeometry y="30" width="40" height="40" as="geometry" />
        </mxCell>
        <mxCell id="r81_bSy1_nfOfyMMS9X0-128" value="" style="rounded=0;orthogonalLoop=1;jettySize=auto;html=1;" parent="r81_bSy1_nfOfyMMS9X0-120" source="r81_bSy1_nfOfyMMS9X0-124" target="r81_bSy1_nfOfyMMS9X0-127" edge="1">
          <mxGeometry relative="1" as="geometry" />
        </mxCell>
        <mxCell id="r81_bSy1_nfOfyMMS9X0-129" value="" style="rounded=1;whiteSpace=wrap;html=1;fillColor=#d5e8d4;strokeColor=#82b366;" parent="r81_bSy1_nfOfyMMS9X0-120" vertex="1">
          <mxGeometry x="70" width="40" height="40" as="geometry" />
        </mxCell>
        <mxCell id="r81_bSy1_nfOfyMMS9X0-130" style="edgeStyle=orthogonalEdgeStyle;rounded=0;orthogonalLoop=1;jettySize=auto;html=1;entryX=0.5;entryY=1;entryDx=0;entryDy=0;" parent="r81_bSy1_nfOfyMMS9X0-120" source="r81_bSy1_nfOfyMMS9X0-121" target="r81_bSy1_nfOfyMMS9X0-129" edge="1">
          <mxGeometry relative="1" as="geometry" />
        </mxCell>
        <mxCell id="r81_bSy1_nfOfyMMS9X0-131" value="" style="rounded=0;orthogonalLoop=1;jettySize=auto;html=1;" parent="r81_bSy1_nfOfyMMS9X0-120" source="r81_bSy1_nfOfyMMS9X0-127" target="r81_bSy1_nfOfyMMS9X0-129" edge="1">
          <mxGeometry relative="1" as="geometry" />
        </mxCell>
        <mxCell id="r81_bSy1_nfOfyMMS9X0-132" value="" style="rounded=1;whiteSpace=wrap;html=1;fillColor=#d5e8d4;strokeColor=#82b366;" parent="r81_bSy1_nfOfyMMS9X0-120" vertex="1">
          <mxGeometry x="140" y="20" width="40" height="40" as="geometry" />
        </mxCell>
        <mxCell id="r81_bSy1_nfOfyMMS9X0-133" style="rounded=0;orthogonalLoop=1;jettySize=auto;html=1;entryX=0.5;entryY=1;entryDx=0;entryDy=0;" parent="r81_bSy1_nfOfyMMS9X0-120" source="r81_bSy1_nfOfyMMS9X0-122" target="r81_bSy1_nfOfyMMS9X0-132" edge="1">
          <mxGeometry relative="1" as="geometry" />
        </mxCell>
        <mxCell id="r81_bSy1_nfOfyMMS9X0-134" value="" style="rounded=0;orthogonalLoop=1;jettySize=auto;html=1;" parent="r81_bSy1_nfOfyMMS9X0-120" source="r81_bSy1_nfOfyMMS9X0-129" target="r81_bSy1_nfOfyMMS9X0-132" edge="1">
          <mxGeometry relative="1" as="geometry" />
        </mxCell>
        <mxCell id="r81_bSy1_nfOfyMMS9X0-135" value="" style="group" parent="1" vertex="1" connectable="0">
          <mxGeometry x="20" y="280" width="160" height="120" as="geometry" />
        </mxCell>
        <mxCell id="r81_bSy1_nfOfyMMS9X0-136" value="" style="rounded=1;whiteSpace=wrap;html=1;fillColor=#f8cecc;strokeColor=#b85450;strokeWidth=3;" parent="r81_bSy1_nfOfyMMS9X0-135" vertex="1">
          <mxGeometry x="60" width="40" height="40" as="geometry" />
        </mxCell>
        <mxCell id="r81_bSy1_nfOfyMMS9X0-137" value="" style="rounded=1;whiteSpace=wrap;html=1;fillColor=#f8cecc;strokeColor=#b85450;" parent="r81_bSy1_nfOfyMMS9X0-135" vertex="1">
          <mxGeometry y="80" width="40" height="40" as="geometry" />
        </mxCell>
        <mxCell id="r81_bSy1_nfOfyMMS9X0-138" value="" style="rounded=0;orthogonalLoop=1;jettySize=auto;html=1;" parent="r81_bSy1_nfOfyMMS9X0-135" source="r81_bSy1_nfOfyMMS9X0-136" target="r81_bSy1_nfOfyMMS9X0-137" edge="1">
          <mxGeometry relative="1" as="geometry" />
        </mxCell>
        <mxCell id="r81_bSy1_nfOfyMMS9X0-139" style="rounded=0;orthogonalLoop=1;jettySize=auto;html=1;exitX=0.5;exitY=0;exitDx=0;exitDy=0;" parent="r81_bSy1_nfOfyMMS9X0-135" source="r81_bSy1_nfOfyMMS9X0-140" target="r81_bSy1_nfOfyMMS9X0-136" edge="1">
          <mxGeometry relative="1" as="geometry" />
        </mxCell>
        <mxCell id="r81_bSy1_nfOfyMMS9X0-140" value="" style="rounded=1;whiteSpace=wrap;html=1;fillColor=#f8cecc;strokeColor=#b85450;" parent="r81_bSy1_nfOfyMMS9X0-135" vertex="1">
          <mxGeometry x="120" y="80" width="40" height="40" as="geometry" />
        </mxCell>
        <mxCell id="r81_bSy1_nfOfyMMS9X0-141" value="" style="rounded=0;orthogonalLoop=1;jettySize=auto;html=1;" parent="r81_bSy1_nfOfyMMS9X0-135" source="r81_bSy1_nfOfyMMS9X0-137" target="r81_bSy1_nfOfyMMS9X0-140" edge="1">
          <mxGeometry relative="1" as="geometry" />
        </mxCell>
        <mxCell id="r81_bSy1_nfOfyMMS9X0-151" style="rounded=0;orthogonalLoop=1;jettySize=auto;html=1;exitX=0.5;exitY=1;exitDx=0;exitDy=0;" parent="1" source="r81_bSy1_nfOfyMMS9X0-153" target="r81_bSy1_nfOfyMMS9X0-112" edge="1">
          <mxGeometry relative="1" as="geometry" />
        </mxCell>
        <mxCell id="r81_bSy1_nfOfyMMS9X0-152" value="" style="group" parent="1" vertex="1" connectable="0">
          <mxGeometry x="-140" y="-40" width="180" height="180" as="geometry" />
        </mxCell>
        <mxCell id="r81_bSy1_nfOfyMMS9X0-153" value="" style="rounded=1;whiteSpace=wrap;html=1;fillColor=#fff2cc;strokeColor=#d6b656;strokeWidth=3;" parent="r81_bSy1_nfOfyMMS9X0-152" vertex="1">
          <mxGeometry x="70" y="130" width="40" height="40" as="geometry" />
        </mxCell>
        <mxCell id="r81_bSy1_nfOfyMMS9X0-154" value="" style="rounded=1;whiteSpace=wrap;html=1;fillColor=#fff2cc;strokeColor=#d6b656;" parent="r81_bSy1_nfOfyMMS9X0-152" vertex="1">
          <mxGeometry x="140" y="100" width="40" height="40" as="geometry" />
        </mxCell>
        <mxCell id="r81_bSy1_nfOfyMMS9X0-155" value="" style="rounded=0;orthogonalLoop=1;jettySize=auto;html=1;" parent="r81_bSy1_nfOfyMMS9X0-152" target="r81_bSy1_nfOfyMMS9X0-154" edge="1">
          <mxGeometry relative="1" as="geometry">
            <mxPoint x="110" y="141.42857142857156" as="sourcePoint" />
          </mxGeometry>
        </mxCell>
        <mxCell id="r81_bSy1_nfOfyMMS9X0-156" value="" style="rounded=1;whiteSpace=wrap;html=1;fillColor=#fff2cc;strokeColor=#d6b656;" parent="r81_bSy1_nfOfyMMS9X0-152" vertex="1">
          <mxGeometry y="90" width="40" height="40" as="geometry" />
        </mxCell>
        <mxCell id="r81_bSy1_nfOfyMMS9X0-157" value="" style="rounded=0;orthogonalLoop=1;jettySize=auto;html=1;" parent="r81_bSy1_nfOfyMMS9X0-152" target="r81_bSy1_nfOfyMMS9X0-156" edge="1">
          <mxGeometry relative="1" as="geometry">
            <mxPoint x="70" y="138.57142857142844" as="sourcePoint" />
          </mxGeometry>
        </mxCell>
        <mxCell id="r81_bSy1_nfOfyMMS9X0-158" value="" style="rounded=1;whiteSpace=wrap;html=1;fillColor=#fff2cc;strokeColor=#d6b656;" parent="r81_bSy1_nfOfyMMS9X0-152" vertex="1">
          <mxGeometry y="20" width="40" height="40" as="geometry" />
        </mxCell>
        <mxCell id="r81_bSy1_nfOfyMMS9X0-159" value="" style="rounded=0;orthogonalLoop=1;jettySize=auto;html=1;" parent="r81_bSy1_nfOfyMMS9X0-152" source="r81_bSy1_nfOfyMMS9X0-156" target="r81_bSy1_nfOfyMMS9X0-158" edge="1">
          <mxGeometry relative="1" as="geometry" />
        </mxCell>
        <mxCell id="r81_bSy1_nfOfyMMS9X0-160" value="" style="rounded=1;whiteSpace=wrap;html=1;fillColor=#fff2cc;strokeColor=#d6b656;" parent="r81_bSy1_nfOfyMMS9X0-152" vertex="1">
          <mxGeometry x="70" y="-10" width="40" height="40" as="geometry" />
        </mxCell>
        <mxCell id="r81_bSy1_nfOfyMMS9X0-161" value="" style="rounded=0;orthogonalLoop=1;jettySize=auto;html=1;" parent="r81_bSy1_nfOfyMMS9X0-152" source="r81_bSy1_nfOfyMMS9X0-158" target="r81_bSy1_nfOfyMMS9X0-160" edge="1">
          <mxGeometry relative="1" as="geometry" />
        </mxCell>
        <mxCell id="r81_bSy1_nfOfyMMS9X0-162" value="" style="rounded=1;whiteSpace=wrap;html=1;fillColor=#fff2cc;strokeColor=#d6b656;" parent="r81_bSy1_nfOfyMMS9X0-152" vertex="1">
          <mxGeometry x="140" y="10" width="40" height="40" as="geometry" />
        </mxCell>
        <mxCell id="r81_bSy1_nfOfyMMS9X0-163" style="rounded=0;orthogonalLoop=1;jettySize=auto;html=1;entryX=0.5;entryY=1;entryDx=0;entryDy=0;" parent="r81_bSy1_nfOfyMMS9X0-152" source="r81_bSy1_nfOfyMMS9X0-154" target="r81_bSy1_nfOfyMMS9X0-162" edge="1">
          <mxGeometry relative="1" as="geometry" />
        </mxCell>
        <mxCell id="r81_bSy1_nfOfyMMS9X0-164" value="" style="rounded=0;orthogonalLoop=1;jettySize=auto;html=1;" parent="r81_bSy1_nfOfyMMS9X0-152" source="r81_bSy1_nfOfyMMS9X0-160" target="r81_bSy1_nfOfyMMS9X0-162" edge="1">
          <mxGeometry relative="1" as="geometry" />
        </mxCell>
        <mxCell id="r81_bSy1_nfOfyMMS9X0-167" style="edgeStyle=none;shape=connector;rounded=0;orthogonalLoop=1;jettySize=auto;html=1;entryX=0;entryY=0;entryDx=0;entryDy=0;labelBackgroundColor=default;strokeColor=default;align=center;verticalAlign=middle;fontFamily=Helvetica;fontSize=11;fontColor=default;endArrow=classic;" parent="1" source="dbzIAWiyyoJPs32lD5O0-132" target="dbzIAWiyyoJPs32lD5O0-99" edge="1">
          <mxGeometry relative="1" as="geometry" />
        </mxCell>
        <mxCell id="r81_bSy1_nfOfyMMS9X0-178" value="" style="group" parent="1" vertex="1" connectable="0">
          <mxGeometry x="-1030" y="210" width="380" height="220" as="geometry" />
        </mxCell>
        <mxCell id="r81_bSy1_nfOfyMMS9X0-179" value="" style="rounded=0;whiteSpace=wrap;html=1;fontFamily=Helvetica;fontSize=11;fillColor=#E6E6E6;strokeColor=#23445d;shadow=1;" parent="r81_bSy1_nfOfyMMS9X0-178" vertex="1">
          <mxGeometry x="-19.49" y="-20" width="194.87" height="190" as="geometry" />
        </mxCell>
        <mxCell id="r81_bSy1_nfOfyMMS9X0-180" value="" style="rounded=1;whiteSpace=wrap;html=1;fillColor=#dae8fc;strokeColor=#6c8ebf;" parent="r81_bSy1_nfOfyMMS9X0-178" vertex="1">
          <mxGeometry width="38.97435897435897" height="40" as="geometry" />
        </mxCell>
        <mxCell id="r81_bSy1_nfOfyMMS9X0-181" value="" style="rounded=1;whiteSpace=wrap;html=1;fillColor=#dae8fc;strokeColor=#6c8ebf;" parent="r81_bSy1_nfOfyMMS9X0-178" vertex="1">
          <mxGeometry x="116.92307692307692" width="38.97435897435897" height="40" as="geometry" />
        </mxCell>
        <mxCell id="r81_bSy1_nfOfyMMS9X0-182" value="" style="edgeStyle=orthogonalEdgeStyle;rounded=0;orthogonalLoop=1;jettySize=auto;html=1;" parent="r81_bSy1_nfOfyMMS9X0-178" source="r81_bSy1_nfOfyMMS9X0-180" target="r81_bSy1_nfOfyMMS9X0-181" edge="1">
          <mxGeometry relative="1" as="geometry" />
        </mxCell>
        <mxCell id="r81_bSy1_nfOfyMMS9X0-183" value="" style="rounded=1;whiteSpace=wrap;html=1;fillColor=#dae8fc;strokeColor=#6c8ebf;" parent="r81_bSy1_nfOfyMMS9X0-178" vertex="1">
          <mxGeometry x="116.92307692307692" y="120" width="38.97435897435897" height="40" as="geometry" />
        </mxCell>
        <mxCell id="r81_bSy1_nfOfyMMS9X0-184" value="" style="edgeStyle=orthogonalEdgeStyle;rounded=0;orthogonalLoop=1;jettySize=auto;html=1;" parent="r81_bSy1_nfOfyMMS9X0-178" source="r81_bSy1_nfOfyMMS9X0-181" target="r81_bSy1_nfOfyMMS9X0-183" edge="1">
          <mxGeometry relative="1" as="geometry" />
        </mxCell>
        <mxCell id="r81_bSy1_nfOfyMMS9X0-185" value="" style="edgeStyle=orthogonalEdgeStyle;rounded=0;orthogonalLoop=1;jettySize=auto;html=1;" parent="r81_bSy1_nfOfyMMS9X0-178" source="r81_bSy1_nfOfyMMS9X0-186" target="r81_bSy1_nfOfyMMS9X0-180" edge="1">
          <mxGeometry relative="1" as="geometry" />
        </mxCell>
        <mxCell id="r81_bSy1_nfOfyMMS9X0-186" value="" style="rounded=1;whiteSpace=wrap;html=1;fillColor=#dae8fc;strokeColor=#6c8ebf;" parent="r81_bSy1_nfOfyMMS9X0-178" vertex="1">
          <mxGeometry y="120" width="38.97435897435897" height="40" as="geometry" />
        </mxCell>
        <mxCell id="r81_bSy1_nfOfyMMS9X0-187" value="" style="edgeStyle=orthogonalEdgeStyle;rounded=0;orthogonalLoop=1;jettySize=auto;html=1;" parent="r81_bSy1_nfOfyMMS9X0-178" source="r81_bSy1_nfOfyMMS9X0-183" target="r81_bSy1_nfOfyMMS9X0-186" edge="1">
          <mxGeometry relative="1" as="geometry" />
        </mxCell>
        <mxCell id="r81_bSy1_nfOfyMMS9X0-303" value="" style="rounded=0;whiteSpace=wrap;html=1;fontFamily=Helvetica;fontSize=11;fillColor=#E6E6E6;strokeColor=#23445d;shadow=1;" parent="r81_bSy1_nfOfyMMS9X0-178" vertex="1">
          <mxGeometry x="185.13" y="-20" width="194.87" height="190" as="geometry" />
        </mxCell>
        <mxCell id="Tij77vFqYgEeM6soHszD-1" value="" style="rounded=0;whiteSpace=wrap;html=1;fontFamily=Helvetica;fontSize=11;fillColor=#E6E6E6;strokeColor=#23445d;shadow=1;" vertex="1" parent="r81_bSy1_nfOfyMMS9X0-178">
          <mxGeometry x="195.13" y="310" width="194.87" height="190" as="geometry" />
        </mxCell>
        <mxCell id="r81_bSy1_nfOfyMMS9X0-188" value="" style="edgeStyle=orthogonalEdgeStyle;rounded=0;orthogonalLoop=1;jettySize=auto;html=1;" parent="1" source="r81_bSy1_nfOfyMMS9X0-190" target="r81_bSy1_nfOfyMMS9X0-192" edge="1">
          <mxGeometry relative="1" as="geometry" />
        </mxCell>
        <mxCell id="r81_bSy1_nfOfyMMS9X0-189" style="edgeStyle=none;shape=connector;rounded=0;orthogonalLoop=1;jettySize=auto;html=1;entryX=1;entryY=0;entryDx=0;entryDy=0;labelBackgroundColor=default;strokeColor=default;align=center;verticalAlign=middle;fontFamily=Helvetica;fontSize=11;fontColor=default;endArrow=classic;" parent="1" source="r81_bSy1_nfOfyMMS9X0-190" target="r81_bSy1_nfOfyMMS9X0-183" edge="1">
          <mxGeometry relative="1" as="geometry" />
        </mxCell>
        <mxCell id="r81_bSy1_nfOfyMMS9X0-190" value="" style="rounded=1;whiteSpace=wrap;html=1;fillColor=#dae8fc;strokeColor=#6c8ebf;" parent="1" vertex="1">
          <mxGeometry x="-830" y="210" width="40" height="40" as="geometry" />
        </mxCell>
        <mxCell id="r81_bSy1_nfOfyMMS9X0-191" value="" style="edgeStyle=orthogonalEdgeStyle;rounded=0;orthogonalLoop=1;jettySize=auto;html=1;" parent="1" source="r81_bSy1_nfOfyMMS9X0-192" target="r81_bSy1_nfOfyMMS9X0-194" edge="1">
          <mxGeometry relative="1" as="geometry" />
        </mxCell>
        <mxCell id="r81_bSy1_nfOfyMMS9X0-192" value="" style="rounded=1;whiteSpace=wrap;html=1;fillColor=#dae8fc;strokeColor=#6c8ebf;strokeWidth=3;" parent="1" vertex="1">
          <mxGeometry x="-710" y="210" width="40" height="40" as="geometry" />
        </mxCell>
        <mxCell id="r81_bSy1_nfOfyMMS9X0-193" value="" style="edgeStyle=orthogonalEdgeStyle;rounded=0;orthogonalLoop=1;jettySize=auto;html=1;" parent="1" source="r81_bSy1_nfOfyMMS9X0-194" target="r81_bSy1_nfOfyMMS9X0-196" edge="1">
          <mxGeometry relative="1" as="geometry" />
        </mxCell>
        <mxCell id="r81_bSy1_nfOfyMMS9X0-194" value="" style="rounded=1;whiteSpace=wrap;html=1;fillColor=#dae8fc;strokeColor=#6c8ebf;" parent="1" vertex="1">
          <mxGeometry x="-710" y="330" width="40" height="40" as="geometry" />
        </mxCell>
        <mxCell id="r81_bSy1_nfOfyMMS9X0-195" value="" style="edgeStyle=orthogonalEdgeStyle;rounded=0;orthogonalLoop=1;jettySize=auto;html=1;" parent="1" source="r81_bSy1_nfOfyMMS9X0-196" target="r81_bSy1_nfOfyMMS9X0-190" edge="1">
          <mxGeometry relative="1" as="geometry" />
        </mxCell>
        <mxCell id="r81_bSy1_nfOfyMMS9X0-196" value="" style="rounded=1;whiteSpace=wrap;html=1;fillColor=#dae8fc;strokeColor=#6c8ebf;strokeWidth=3;" parent="1" vertex="1">
          <mxGeometry x="-830" y="330" width="40" height="40" as="geometry" />
        </mxCell>
        <mxCell id="r81_bSy1_nfOfyMMS9X0-197" style="edgeStyle=orthogonalEdgeStyle;rounded=0;orthogonalLoop=1;jettySize=auto;html=1;entryX=0.5;entryY=1;entryDx=0;entryDy=0;" parent="1" target="r81_bSy1_nfOfyMMS9X0-196" edge="1">
          <mxGeometry relative="1" as="geometry">
            <mxPoint x="-810" y="430" as="sourcePoint" />
            <Array as="points">
              <mxPoint x="-810" y="430" />
              <mxPoint x="-810" y="430" />
            </Array>
          </mxGeometry>
        </mxCell>
        <mxCell id="r81_bSy1_nfOfyMMS9X0-198" style="rounded=0;orthogonalLoop=1;jettySize=auto;html=1;entryX=1;entryY=0.5;entryDx=0;entryDy=0;" parent="1" target="r81_bSy1_nfOfyMMS9X0-192" edge="1">
          <mxGeometry relative="1" as="geometry">
            <mxPoint x="-600" y="230" as="sourcePoint" />
          </mxGeometry>
        </mxCell>
        <mxCell id="r81_bSy1_nfOfyMMS9X0-222" style="rounded=0;orthogonalLoop=1;jettySize=auto;html=1;exitX=0.5;exitY=1;exitDx=0;exitDy=0;" parent="1" target="r81_bSy1_nfOfyMMS9X0-192" edge="1">
          <mxGeometry relative="1" as="geometry">
            <mxPoint x="-690" y="130" as="sourcePoint" />
          </mxGeometry>
        </mxCell>
        <mxCell id="r81_bSy1_nfOfyMMS9X0-259" style="edgeStyle=orthogonalEdgeStyle;rounded=0;orthogonalLoop=1;jettySize=auto;html=1;entryX=0.5;entryY=1;entryDx=0;entryDy=0;" parent="1" source="r81_bSy1_nfOfyMMS9X0-238" target="r81_bSy1_nfOfyMMS9X0-241" edge="1">
          <mxGeometry relative="1" as="geometry">
            <mxPoint x="847" y="640" as="sourcePoint" />
            <mxPoint x="440" y="910" as="targetPoint" />
            <Array as="points">
              <mxPoint x="800" y="575" />
              <mxPoint x="800" y="870" />
              <mxPoint x="540" y="870" />
            </Array>
          </mxGeometry>
        </mxCell>
        <mxCell id="r81_bSy1_nfOfyMMS9X0-260" style="rounded=0;orthogonalLoop=1;jettySize=auto;html=1;" parent="1" source="r81_bSy1_nfOfyMMS9X0-239" target="r81_bSy1_nfOfyMMS9X0-241" edge="1">
          <mxGeometry relative="1" as="geometry">
            <mxPoint x="690" y="829.230769230769" as="sourcePoint" />
            <mxPoint x="580" y="770" as="targetPoint" />
          </mxGeometry>
        </mxCell>
        <mxCell id="r81_bSy1_nfOfyMMS9X0-261" style="rounded=0;orthogonalLoop=1;jettySize=auto;html=1;exitX=0.5;exitY=0;exitDx=0;exitDy=0;" parent="1" source="r81_bSy1_nfOfyMMS9X0-239" target="r81_bSy1_nfOfyMMS9X0-238" edge="1">
          <mxGeometry relative="1" as="geometry" />
        </mxCell>
        <mxCell id="r81_bSy1_nfOfyMMS9X0-314" value="" style="edgeStyle=orthogonalEdgeStyle;rounded=0;orthogonalLoop=1;jettySize=auto;html=1;" parent="1" source="r81_bSy1_nfOfyMMS9X0-316" target="r81_bSy1_nfOfyMMS9X0-318" edge="1">
          <mxGeometry relative="1" as="geometry" />
        </mxCell>
        <mxCell id="r81_bSy1_nfOfyMMS9X0-315" style="edgeStyle=none;shape=connector;rounded=0;orthogonalLoop=1;jettySize=auto;html=1;entryX=0;entryY=0;entryDx=0;entryDy=0;labelBackgroundColor=default;strokeColor=default;align=center;verticalAlign=middle;fontFamily=Helvetica;fontSize=11;fontColor=default;endArrow=classic;" parent="1" source="r81_bSy1_nfOfyMMS9X0-316" target="r81_bSy1_nfOfyMMS9X0-309" edge="1">
          <mxGeometry relative="1" as="geometry" />
        </mxCell>
        <mxCell id="r81_bSy1_nfOfyMMS9X0-316" value="" style="rounded=1;whiteSpace=wrap;html=1;fillColor=#dae8fc;strokeColor=#6c8ebf;" parent="1" vertex="1">
          <mxGeometry x="-880" y="-70" width="40" height="40" as="geometry" />
        </mxCell>
        <mxCell id="r81_bSy1_nfOfyMMS9X0-317" value="" style="edgeStyle=orthogonalEdgeStyle;rounded=0;orthogonalLoop=1;jettySize=auto;html=1;" parent="1" source="r81_bSy1_nfOfyMMS9X0-318" target="r81_bSy1_nfOfyMMS9X0-320" edge="1">
          <mxGeometry relative="1" as="geometry" />
        </mxCell>
        <mxCell id="r81_bSy1_nfOfyMMS9X0-318" value="" style="rounded=1;whiteSpace=wrap;html=1;fillColor=#dae8fc;strokeColor=#6c8ebf;strokeWidth=3;" parent="1" vertex="1">
          <mxGeometry x="-760" y="-70" width="40" height="40" as="geometry" />
        </mxCell>
        <mxCell id="r81_bSy1_nfOfyMMS9X0-319" value="" style="edgeStyle=orthogonalEdgeStyle;rounded=0;orthogonalLoop=1;jettySize=auto;html=1;" parent="1" source="r81_bSy1_nfOfyMMS9X0-320" target="r81_bSy1_nfOfyMMS9X0-322" edge="1">
          <mxGeometry relative="1" as="geometry" />
        </mxCell>
        <mxCell id="r81_bSy1_nfOfyMMS9X0-320" value="" style="rounded=1;whiteSpace=wrap;html=1;fillColor=#dae8fc;strokeColor=#6c8ebf;" parent="1" vertex="1">
          <mxGeometry x="-760" y="50" width="40" height="40" as="geometry" />
        </mxCell>
        <mxCell id="r81_bSy1_nfOfyMMS9X0-321" value="" style="edgeStyle=orthogonalEdgeStyle;rounded=0;orthogonalLoop=1;jettySize=auto;html=1;" parent="1" source="r81_bSy1_nfOfyMMS9X0-322" target="r81_bSy1_nfOfyMMS9X0-316" edge="1">
          <mxGeometry relative="1" as="geometry" />
        </mxCell>
        <mxCell id="r81_bSy1_nfOfyMMS9X0-322" value="" style="rounded=1;whiteSpace=wrap;html=1;fillColor=#dae8fc;strokeColor=#6c8ebf;strokeWidth=3;" parent="1" vertex="1">
          <mxGeometry x="-880" y="50" width="40" height="40" as="geometry" />
        </mxCell>
        <mxCell id="r81_bSy1_nfOfyMMS9X0-323" style="rounded=0;orthogonalLoop=1;jettySize=auto;html=1;exitX=0.5;exitY=1;exitDx=0;exitDy=0;" parent="1" target="r81_bSy1_nfOfyMMS9X0-318" edge="1">
          <mxGeometry relative="1" as="geometry">
            <mxPoint x="-740" y="-150" as="sourcePoint" />
          </mxGeometry>
        </mxCell>
        <mxCell id="r81_bSy1_nfOfyMMS9X0-324" style="rounded=0;orthogonalLoop=1;jettySize=auto;html=1;entryX=1;entryY=0.5;entryDx=0;entryDy=0;" parent="1" edge="1">
          <mxGeometry relative="1" as="geometry">
            <mxPoint x="-650" y="-50" as="sourcePoint" />
            <mxPoint x="-720" y="-50" as="targetPoint" />
          </mxGeometry>
        </mxCell>
        <mxCell id="r81_bSy1_nfOfyMMS9X0-325" style="edgeStyle=orthogonalEdgeStyle;rounded=0;orthogonalLoop=1;jettySize=auto;html=1;entryX=0.5;entryY=1;entryDx=0;entryDy=0;" parent="1" edge="1">
          <mxGeometry relative="1" as="geometry">
            <mxPoint x="-860" y="150" as="sourcePoint" />
            <mxPoint x="-860" y="90" as="targetPoint" />
            <Array as="points">
              <mxPoint x="-860" y="150" />
              <mxPoint x="-860" y="150" />
            </Array>
          </mxGeometry>
        </mxCell>
        <mxCell id="Tij77vFqYgEeM6soHszD-2" value="" style="edgeStyle=orthogonalEdgeStyle;rounded=0;orthogonalLoop=1;jettySize=auto;html=1;" edge="1" source="Tij77vFqYgEeM6soHszD-4" target="Tij77vFqYgEeM6soHszD-6" parent="1">
          <mxGeometry relative="1" as="geometry" />
        </mxCell>
        <mxCell id="Tij77vFqYgEeM6soHszD-3" style="edgeStyle=none;shape=connector;rounded=0;orthogonalLoop=1;jettySize=auto;html=1;labelBackgroundColor=default;strokeColor=default;align=center;verticalAlign=middle;fontFamily=Helvetica;fontSize=11;fontColor=default;endArrow=classic;" edge="1" source="Tij77vFqYgEeM6soHszD-4" parent="1">
          <mxGeometry relative="1" as="geometry">
            <mxPoint x="-864" y="560" as="targetPoint" />
          </mxGeometry>
        </mxCell>
        <mxCell id="Tij77vFqYgEeM6soHszD-4" value="" style="rounded=1;whiteSpace=wrap;html=1;fillColor=#dae8fc;strokeColor=#6c8ebf;" vertex="1" parent="1">
          <mxGeometry x="-820" y="540" width="40" height="40" as="geometry" />
        </mxCell>
        <mxCell id="Tij77vFqYgEeM6soHszD-5" value="" style="edgeStyle=orthogonalEdgeStyle;rounded=0;orthogonalLoop=1;jettySize=auto;html=1;" edge="1" source="Tij77vFqYgEeM6soHszD-6" target="Tij77vFqYgEeM6soHszD-8" parent="1">
          <mxGeometry relative="1" as="geometry" />
        </mxCell>
        <mxCell id="Tij77vFqYgEeM6soHszD-6" value="" style="rounded=1;whiteSpace=wrap;html=1;fillColor=#dae8fc;strokeColor=#6c8ebf;strokeWidth=3;" vertex="1" parent="1">
          <mxGeometry x="-700" y="540" width="40" height="40" as="geometry" />
        </mxCell>
        <mxCell id="Tij77vFqYgEeM6soHszD-7" value="" style="edgeStyle=orthogonalEdgeStyle;rounded=0;orthogonalLoop=1;jettySize=auto;html=1;" edge="1" source="Tij77vFqYgEeM6soHszD-8" target="Tij77vFqYgEeM6soHszD-10" parent="1">
          <mxGeometry relative="1" as="geometry" />
        </mxCell>
        <mxCell id="Tij77vFqYgEeM6soHszD-8" value="" style="rounded=1;whiteSpace=wrap;html=1;fillColor=#dae8fc;strokeColor=#6c8ebf;" vertex="1" parent="1">
          <mxGeometry x="-700" y="660" width="40" height="40" as="geometry" />
        </mxCell>
        <mxCell id="Tij77vFqYgEeM6soHszD-9" value="" style="edgeStyle=orthogonalEdgeStyle;rounded=0;orthogonalLoop=1;jettySize=auto;html=1;" edge="1" source="Tij77vFqYgEeM6soHszD-10" target="Tij77vFqYgEeM6soHszD-4" parent="1">
          <mxGeometry relative="1" as="geometry" />
        </mxCell>
        <mxCell id="Tij77vFqYgEeM6soHszD-10" value="" style="rounded=1;whiteSpace=wrap;html=1;fillColor=#dae8fc;strokeColor=#6c8ebf;strokeWidth=3;" vertex="1" parent="1">
          <mxGeometry x="-820" y="660" width="40" height="40" as="geometry" />
        </mxCell>
        <mxCell id="Tij77vFqYgEeM6soHszD-11" style="edgeStyle=orthogonalEdgeStyle;rounded=0;orthogonalLoop=1;jettySize=auto;html=1;entryX=0.5;entryY=1;entryDx=0;entryDy=0;" edge="1" target="Tij77vFqYgEeM6soHszD-10" parent="1">
          <mxGeometry relative="1" as="geometry">
            <mxPoint x="-800" y="760" as="sourcePoint" />
            <Array as="points">
              <mxPoint x="-800" y="760" />
              <mxPoint x="-800" y="760" />
            </Array>
          </mxGeometry>
        </mxCell>
        <mxCell id="Tij77vFqYgEeM6soHszD-12" style="rounded=0;orthogonalLoop=1;jettySize=auto;html=1;entryX=1;entryY=0.5;entryDx=0;entryDy=0;" edge="1" target="Tij77vFqYgEeM6soHszD-6" parent="1">
          <mxGeometry relative="1" as="geometry">
            <mxPoint x="-590" y="560" as="sourcePoint" />
          </mxGeometry>
        </mxCell>
        <mxCell id="Tij77vFqYgEeM6soHszD-13" style="rounded=0;orthogonalLoop=1;jettySize=auto;html=1;exitX=0.5;exitY=1;exitDx=0;exitDy=0;" edge="1" target="Tij77vFqYgEeM6soHszD-6" parent="1">
          <mxGeometry relative="1" as="geometry">
            <mxPoint x="-680" y="460" as="sourcePoint" />
          </mxGeometry>
        </mxCell>
        <mxCell id="r81_bSy1_nfOfyMMS9X0-143" value="" style="rounded=1;whiteSpace=wrap;html=1;fillColor=#dae8fc;strokeColor=#6c8ebf;" parent="1" vertex="1">
          <mxGeometry x="-250" y="160" width="40" height="40" as="geometry" />
        </mxCell>
        <mxCell id="r81_bSy1_nfOfyMMS9X0-144" value="" style="rounded=1;whiteSpace=wrap;html=1;fillColor=#dae8fc;strokeColor=#6c8ebf;" parent="1" vertex="1">
          <mxGeometry x="-130" y="160" width="40" height="40" as="geometry" />
        </mxCell>
        <mxCell id="r81_bSy1_nfOfyMMS9X0-145" value="" style="edgeStyle=orthogonalEdgeStyle;rounded=0;orthogonalLoop=1;jettySize=auto;html=1;" parent="1" source="r81_bSy1_nfOfyMMS9X0-143" target="r81_bSy1_nfOfyMMS9X0-144" edge="1">
          <mxGeometry relative="1" as="geometry" />
        </mxCell>
        <mxCell id="r81_bSy1_nfOfyMMS9X0-146" value="" style="rounded=1;whiteSpace=wrap;html=1;fillColor=#dae8fc;strokeColor=#6c8ebf;" parent="1" vertex="1">
          <mxGeometry x="-130" y="280" width="40" height="40" as="geometry" />
        </mxCell>
        <mxCell id="r81_bSy1_nfOfyMMS9X0-147" value="" style="edgeStyle=orthogonalEdgeStyle;rounded=0;orthogonalLoop=1;jettySize=auto;html=1;" parent="1" source="r81_bSy1_nfOfyMMS9X0-144" target="r81_bSy1_nfOfyMMS9X0-146" edge="1">
          <mxGeometry relative="1" as="geometry" />
        </mxCell>
        <mxCell id="r81_bSy1_nfOfyMMS9X0-148" value="" style="edgeStyle=orthogonalEdgeStyle;rounded=0;orthogonalLoop=1;jettySize=auto;html=1;" parent="1" source="r81_bSy1_nfOfyMMS9X0-149" target="r81_bSy1_nfOfyMMS9X0-143" edge="1">
          <mxGeometry relative="1" as="geometry" />
        </mxCell>
        <mxCell id="r81_bSy1_nfOfyMMS9X0-149" value="" style="rounded=1;whiteSpace=wrap;html=1;fillColor=#dae8fc;strokeColor=#6c8ebf;" parent="1" vertex="1">
          <mxGeometry x="-250" y="280" width="40" height="40" as="geometry" />
        </mxCell>
        <mxCell id="r81_bSy1_nfOfyMMS9X0-150" value="" style="edgeStyle=orthogonalEdgeStyle;rounded=0;orthogonalLoop=1;jettySize=auto;html=1;" parent="1" source="r81_bSy1_nfOfyMMS9X0-146" target="r81_bSy1_nfOfyMMS9X0-149" edge="1">
          <mxGeometry relative="1" as="geometry" />
        </mxCell>
        <mxCell id="r81_bSy1_nfOfyMMS9X0-306" value="" style="rounded=1;whiteSpace=wrap;html=1;fillColor=#dae8fc;strokeColor=#6c8ebf;" parent="1" vertex="1">
          <mxGeometry x="-940" y="-120" width="40" height="40" as="geometry" />
        </mxCell>
        <mxCell id="r81_bSy1_nfOfyMMS9X0-307" value="" style="rounded=1;whiteSpace=wrap;html=1;fillColor=#dae8fc;strokeColor=#6c8ebf;" parent="1" vertex="1">
          <mxGeometry x="-820" y="-120" width="40" height="40" as="geometry" />
        </mxCell>
        <mxCell id="r81_bSy1_nfOfyMMS9X0-308" value="" style="edgeStyle=orthogonalEdgeStyle;rounded=0;orthogonalLoop=1;jettySize=auto;html=1;" parent="1" source="r81_bSy1_nfOfyMMS9X0-306" target="r81_bSy1_nfOfyMMS9X0-307" edge="1">
          <mxGeometry relative="1" as="geometry" />
        </mxCell>
        <mxCell id="r81_bSy1_nfOfyMMS9X0-309" value="" style="rounded=1;whiteSpace=wrap;html=1;fillColor=#dae8fc;strokeColor=#6c8ebf;" parent="1" vertex="1">
          <mxGeometry x="-820" width="40" height="40" as="geometry" />
        </mxCell>
        <mxCell id="r81_bSy1_nfOfyMMS9X0-310" value="" style="edgeStyle=orthogonalEdgeStyle;rounded=0;orthogonalLoop=1;jettySize=auto;html=1;" parent="1" source="r81_bSy1_nfOfyMMS9X0-307" target="r81_bSy1_nfOfyMMS9X0-309" edge="1">
          <mxGeometry relative="1" as="geometry" />
        </mxCell>
        <mxCell id="r81_bSy1_nfOfyMMS9X0-311" value="" style="edgeStyle=orthogonalEdgeStyle;rounded=0;orthogonalLoop=1;jettySize=auto;html=1;" parent="1" source="r81_bSy1_nfOfyMMS9X0-312" target="r81_bSy1_nfOfyMMS9X0-306" edge="1">
          <mxGeometry relative="1" as="geometry" />
        </mxCell>
        <mxCell id="r81_bSy1_nfOfyMMS9X0-312" value="" style="rounded=1;whiteSpace=wrap;html=1;fillColor=#dae8fc;strokeColor=#6c8ebf;" parent="1" vertex="1">
          <mxGeometry x="-940" width="40" height="40" as="geometry" />
        </mxCell>
        <mxCell id="r81_bSy1_nfOfyMMS9X0-313" value="" style="edgeStyle=orthogonalEdgeStyle;rounded=0;orthogonalLoop=1;jettySize=auto;html=1;" parent="1" source="r81_bSy1_nfOfyMMS9X0-309" target="r81_bSy1_nfOfyMMS9X0-312" edge="1">
          <mxGeometry relative="1" as="geometry" />
        </mxCell>
        <mxCell id="Tij77vFqYgEeM6soHszD-157" value="" style="rounded=0;whiteSpace=wrap;html=1;fontFamily=Helvetica;fontSize=11;fillColor=#dae8fc;strokeColor=#6c8ebf;" vertex="1" parent="1">
          <mxGeometry x="-1000" y="-440" width="270" height="230" as="geometry" />
        </mxCell>
        <mxCell id="Tij77vFqYgEeM6soHszD-158" value="" style="edgeStyle=orthogonalEdgeStyle;rounded=0;orthogonalLoop=1;jettySize=auto;html=1;" edge="1" source="Tij77vFqYgEeM6soHszD-160" target="Tij77vFqYgEeM6soHszD-162" parent="1">
          <mxGeometry relative="1" as="geometry" />
        </mxCell>
        <mxCell id="Tij77vFqYgEeM6soHszD-159" style="edgeStyle=none;shape=connector;rounded=0;orthogonalLoop=1;jettySize=auto;html=1;entryX=0;entryY=0;entryDx=0;entryDy=0;labelBackgroundColor=default;strokeColor=default;align=center;verticalAlign=middle;fontFamily=Helvetica;fontSize=11;fontColor=default;endArrow=classic;" edge="1" source="Tij77vFqYgEeM6soHszD-160" target="Tij77vFqYgEeM6soHszD-209" parent="1">
          <mxGeometry relative="1" as="geometry" />
        </mxCell>
        <mxCell id="Tij77vFqYgEeM6soHszD-160" value="" style="rounded=1;whiteSpace=wrap;html=1;fillColor=#dae8fc;strokeColor=#6c8ebf;" vertex="1" parent="1">
          <mxGeometry x="-920" y="-380" width="40" height="40" as="geometry" />
        </mxCell>
        <mxCell id="Tij77vFqYgEeM6soHszD-161" value="" style="edgeStyle=orthogonalEdgeStyle;rounded=0;orthogonalLoop=1;jettySize=auto;html=1;" edge="1" source="Tij77vFqYgEeM6soHszD-162" target="Tij77vFqYgEeM6soHszD-164" parent="1">
          <mxGeometry relative="1" as="geometry" />
        </mxCell>
        <mxCell id="Tij77vFqYgEeM6soHszD-162" value="" style="rounded=1;whiteSpace=wrap;html=1;fillColor=#dae8fc;strokeColor=#6c8ebf;strokeWidth=3;" vertex="1" parent="1">
          <mxGeometry x="-800" y="-380" width="40" height="40" as="geometry" />
        </mxCell>
        <mxCell id="Tij77vFqYgEeM6soHszD-163" value="" style="edgeStyle=orthogonalEdgeStyle;rounded=0;orthogonalLoop=1;jettySize=auto;html=1;" edge="1" source="Tij77vFqYgEeM6soHszD-164" target="Tij77vFqYgEeM6soHszD-166" parent="1">
          <mxGeometry relative="1" as="geometry" />
        </mxCell>
        <mxCell id="Tij77vFqYgEeM6soHszD-164" value="" style="rounded=1;whiteSpace=wrap;html=1;fillColor=#dae8fc;strokeColor=#6c8ebf;" vertex="1" parent="1">
          <mxGeometry x="-800" y="-260" width="40" height="40" as="geometry" />
        </mxCell>
        <mxCell id="Tij77vFqYgEeM6soHszD-165" value="" style="edgeStyle=orthogonalEdgeStyle;rounded=0;orthogonalLoop=1;jettySize=auto;html=1;" edge="1" source="Tij77vFqYgEeM6soHszD-166" target="Tij77vFqYgEeM6soHszD-160" parent="1">
          <mxGeometry relative="1" as="geometry" />
        </mxCell>
        <mxCell id="Tij77vFqYgEeM6soHszD-166" value="" style="rounded=1;whiteSpace=wrap;html=1;fillColor=#dae8fc;strokeColor=#6c8ebf;strokeWidth=3;" vertex="1" parent="1">
          <mxGeometry x="-920" y="-260" width="40" height="40" as="geometry" />
        </mxCell>
        <mxCell id="Tij77vFqYgEeM6soHszD-167" style="edgeStyle=orthogonalEdgeStyle;rounded=0;orthogonalLoop=1;jettySize=auto;html=1;entryX=0.5;entryY=1;entryDx=0;entryDy=0;exitX=0.5;exitY=1;exitDx=0;exitDy=0;" edge="1" source="Tij77vFqYgEeM6soHszD-172" target="Tij77vFqYgEeM6soHszD-166" parent="1">
          <mxGeometry relative="1" as="geometry">
            <Array as="points">
              <mxPoint x="-493" y="-160" />
              <mxPoint x="-900" y="-160" />
            </Array>
          </mxGeometry>
        </mxCell>
        <mxCell id="Tij77vFqYgEeM6soHszD-168" style="rounded=0;orthogonalLoop=1;jettySize=auto;html=1;entryX=1;entryY=0.5;entryDx=0;entryDy=0;" edge="1" source="Tij77vFqYgEeM6soHszD-186" target="Tij77vFqYgEeM6soHszD-162" parent="1">
          <mxGeometry relative="1" as="geometry" />
        </mxCell>
        <mxCell id="Tij77vFqYgEeM6soHszD-169" style="rounded=0;orthogonalLoop=1;jettySize=auto;html=1;" edge="1" source="Tij77vFqYgEeM6soHszD-186" target="Tij77vFqYgEeM6soHszD-174" parent="1">
          <mxGeometry relative="1" as="geometry" />
        </mxCell>
        <mxCell id="Tij77vFqYgEeM6soHszD-170" value="" style="group;opacity=30;" vertex="1" connectable="0" parent="1">
          <mxGeometry x="-653" y="-640" width="180" height="180" as="geometry" />
        </mxCell>
        <mxCell id="Tij77vFqYgEeM6soHszD-171" value="" style="rounded=1;whiteSpace=wrap;html=1;fillColor=#d5e8d4;strokeColor=#82b366;opacity=30;" vertex="1" parent="Tij77vFqYgEeM6soHszD-170">
          <mxGeometry x="70" y="140" width="40" height="40" as="geometry" />
        </mxCell>
        <mxCell id="Tij77vFqYgEeM6soHszD-172" value="" style="rounded=1;whiteSpace=wrap;html=1;fillColor=#d5e8d4;strokeColor=#82b366;strokeWidth=3;opacity=30;" vertex="1" parent="Tij77vFqYgEeM6soHszD-170">
          <mxGeometry x="140" y="110" width="40" height="40" as="geometry" />
        </mxCell>
        <mxCell id="Tij77vFqYgEeM6soHszD-173" value="" style="rounded=0;orthogonalLoop=1;jettySize=auto;html=1;opacity=30;" edge="1" parent="Tij77vFqYgEeM6soHszD-170" source="Tij77vFqYgEeM6soHszD-171" target="Tij77vFqYgEeM6soHszD-172">
          <mxGeometry relative="1" as="geometry" />
        </mxCell>
        <mxCell id="Tij77vFqYgEeM6soHszD-174" value="" style="rounded=1;whiteSpace=wrap;html=1;fillColor=#d5e8d4;strokeColor=#82b366;strokeWidth=3;opacity=30;" vertex="1" parent="Tij77vFqYgEeM6soHszD-170">
          <mxGeometry y="100" width="40" height="40" as="geometry" />
        </mxCell>
        <mxCell id="Tij77vFqYgEeM6soHszD-175" value="" style="rounded=0;orthogonalLoop=1;jettySize=auto;html=1;opacity=30;" edge="1" parent="Tij77vFqYgEeM6soHszD-170" source="Tij77vFqYgEeM6soHszD-171" target="Tij77vFqYgEeM6soHszD-174">
          <mxGeometry relative="1" as="geometry" />
        </mxCell>
        <mxCell id="Tij77vFqYgEeM6soHszD-176" style="rounded=0;orthogonalLoop=1;jettySize=auto;html=1;entryX=0;entryY=0.25;entryDx=0;entryDy=0;opacity=30;" edge="1" parent="Tij77vFqYgEeM6soHszD-170" source="Tij77vFqYgEeM6soHszD-177" target="Tij77vFqYgEeM6soHszD-172">
          <mxGeometry relative="1" as="geometry" />
        </mxCell>
        <mxCell id="Tij77vFqYgEeM6soHszD-177" value="" style="rounded=1;whiteSpace=wrap;html=1;fillColor=#d5e8d4;strokeColor=#82b366;opacity=30;" vertex="1" parent="Tij77vFqYgEeM6soHszD-170">
          <mxGeometry y="30" width="40" height="40" as="geometry" />
        </mxCell>
        <mxCell id="Tij77vFqYgEeM6soHszD-178" value="" style="rounded=0;orthogonalLoop=1;jettySize=auto;html=1;opacity=30;" edge="1" parent="Tij77vFqYgEeM6soHszD-170" source="Tij77vFqYgEeM6soHszD-174" target="Tij77vFqYgEeM6soHszD-177">
          <mxGeometry relative="1" as="geometry" />
        </mxCell>
        <mxCell id="Tij77vFqYgEeM6soHszD-179" value="" style="rounded=1;whiteSpace=wrap;html=1;fillColor=#d5e8d4;strokeColor=#82b366;opacity=30;" vertex="1" parent="Tij77vFqYgEeM6soHszD-170">
          <mxGeometry x="70" width="40" height="40" as="geometry" />
        </mxCell>
        <mxCell id="Tij77vFqYgEeM6soHszD-180" style="edgeStyle=orthogonalEdgeStyle;rounded=0;orthogonalLoop=1;jettySize=auto;html=1;entryX=0.5;entryY=1;entryDx=0;entryDy=0;opacity=30;" edge="1" parent="Tij77vFqYgEeM6soHszD-170" source="Tij77vFqYgEeM6soHszD-171" target="Tij77vFqYgEeM6soHszD-179">
          <mxGeometry relative="1" as="geometry" />
        </mxCell>
        <mxCell id="Tij77vFqYgEeM6soHszD-181" value="" style="rounded=0;orthogonalLoop=1;jettySize=auto;html=1;opacity=30;" edge="1" parent="Tij77vFqYgEeM6soHszD-170" source="Tij77vFqYgEeM6soHszD-177" target="Tij77vFqYgEeM6soHszD-179">
          <mxGeometry relative="1" as="geometry" />
        </mxCell>
        <mxCell id="Tij77vFqYgEeM6soHszD-182" value="" style="rounded=1;whiteSpace=wrap;html=1;fillColor=#d5e8d4;strokeColor=#82b366;opacity=30;" vertex="1" parent="Tij77vFqYgEeM6soHszD-170">
          <mxGeometry x="140" y="20" width="40" height="40" as="geometry" />
        </mxCell>
        <mxCell id="Tij77vFqYgEeM6soHszD-183" style="rounded=0;orthogonalLoop=1;jettySize=auto;html=1;entryX=0.5;entryY=1;entryDx=0;entryDy=0;opacity=30;" edge="1" parent="Tij77vFqYgEeM6soHszD-170" source="Tij77vFqYgEeM6soHszD-172" target="Tij77vFqYgEeM6soHszD-182">
          <mxGeometry relative="1" as="geometry" />
        </mxCell>
        <mxCell id="Tij77vFqYgEeM6soHszD-184" value="" style="rounded=0;orthogonalLoop=1;jettySize=auto;html=1;opacity=30;" edge="1" parent="Tij77vFqYgEeM6soHszD-170" source="Tij77vFqYgEeM6soHszD-179" target="Tij77vFqYgEeM6soHszD-182">
          <mxGeometry relative="1" as="geometry" />
        </mxCell>
        <mxCell id="Tij77vFqYgEeM6soHszD-185" value="" style="group;opacity=30;" vertex="1" connectable="0" parent="1">
          <mxGeometry x="-710" y="-310" width="160" height="120" as="geometry" />
        </mxCell>
        <mxCell id="Tij77vFqYgEeM6soHszD-186" value="" style="rounded=1;whiteSpace=wrap;html=1;fillColor=#f8cecc;strokeColor=#b85450;strokeWidth=3;opacity=30;" vertex="1" parent="Tij77vFqYgEeM6soHszD-185">
          <mxGeometry x="60" width="40" height="40" as="geometry" />
        </mxCell>
        <mxCell id="Tij77vFqYgEeM6soHszD-187" value="" style="rounded=1;whiteSpace=wrap;html=1;fillColor=#f8cecc;strokeColor=#b85450;opacity=30;" vertex="1" parent="Tij77vFqYgEeM6soHszD-185">
          <mxGeometry y="80" width="40" height="40" as="geometry" />
        </mxCell>
        <mxCell id="Tij77vFqYgEeM6soHszD-188" value="" style="rounded=0;orthogonalLoop=1;jettySize=auto;html=1;opacity=30;" edge="1" parent="Tij77vFqYgEeM6soHszD-185" source="Tij77vFqYgEeM6soHszD-186" target="Tij77vFqYgEeM6soHszD-187">
          <mxGeometry relative="1" as="geometry" />
        </mxCell>
        <mxCell id="Tij77vFqYgEeM6soHszD-189" style="rounded=0;orthogonalLoop=1;jettySize=auto;html=1;exitX=0.5;exitY=0;exitDx=0;exitDy=0;opacity=30;" edge="1" parent="Tij77vFqYgEeM6soHszD-185" source="Tij77vFqYgEeM6soHszD-190" target="Tij77vFqYgEeM6soHszD-186">
          <mxGeometry relative="1" as="geometry" />
        </mxCell>
        <mxCell id="Tij77vFqYgEeM6soHszD-190" value="" style="rounded=1;whiteSpace=wrap;html=1;fillColor=#f8cecc;strokeColor=#b85450;opacity=30;" vertex="1" parent="Tij77vFqYgEeM6soHszD-185">
          <mxGeometry x="120" y="80" width="40" height="40" as="geometry" />
        </mxCell>
        <mxCell id="Tij77vFqYgEeM6soHszD-191" value="" style="rounded=0;orthogonalLoop=1;jettySize=auto;html=1;opacity=30;" edge="1" parent="Tij77vFqYgEeM6soHszD-185" source="Tij77vFqYgEeM6soHszD-187" target="Tij77vFqYgEeM6soHszD-190">
          <mxGeometry relative="1" as="geometry" />
        </mxCell>
        <mxCell id="Tij77vFqYgEeM6soHszD-192" style="rounded=0;orthogonalLoop=1;jettySize=auto;html=1;exitX=0.5;exitY=1;exitDx=0;exitDy=0;" edge="1" source="Tij77vFqYgEeM6soHszD-194" target="Tij77vFqYgEeM6soHszD-162" parent="1">
          <mxGeometry relative="1" as="geometry" />
        </mxCell>
        <mxCell id="Tij77vFqYgEeM6soHszD-193" value="" style="group;opacity=30;" vertex="1" connectable="0" parent="1">
          <mxGeometry x="-870" y="-630" width="180" height="180" as="geometry" />
        </mxCell>
        <mxCell id="Tij77vFqYgEeM6soHszD-194" value="" style="rounded=1;whiteSpace=wrap;html=1;fillColor=#fff2cc;strokeColor=#d6b656;strokeWidth=3;opacity=30;" vertex="1" parent="Tij77vFqYgEeM6soHszD-193">
          <mxGeometry x="70" y="130" width="40" height="40" as="geometry" />
        </mxCell>
        <mxCell id="Tij77vFqYgEeM6soHszD-195" value="" style="rounded=1;whiteSpace=wrap;html=1;fillColor=#fff2cc;strokeColor=#d6b656;opacity=30;" vertex="1" parent="Tij77vFqYgEeM6soHszD-193">
          <mxGeometry x="140" y="100" width="40" height="40" as="geometry" />
        </mxCell>
        <mxCell id="Tij77vFqYgEeM6soHszD-196" value="" style="rounded=0;orthogonalLoop=1;jettySize=auto;html=1;opacity=30;" edge="1" parent="Tij77vFqYgEeM6soHszD-193" target="Tij77vFqYgEeM6soHszD-195">
          <mxGeometry relative="1" as="geometry">
            <mxPoint x="110" y="141.42857142857156" as="sourcePoint" />
          </mxGeometry>
        </mxCell>
        <mxCell id="Tij77vFqYgEeM6soHszD-197" value="" style="rounded=1;whiteSpace=wrap;html=1;fillColor=#fff2cc;strokeColor=#d6b656;opacity=30;" vertex="1" parent="Tij77vFqYgEeM6soHszD-193">
          <mxGeometry y="90" width="40" height="40" as="geometry" />
        </mxCell>
        <mxCell id="Tij77vFqYgEeM6soHszD-198" value="" style="rounded=0;orthogonalLoop=1;jettySize=auto;html=1;opacity=30;" edge="1" parent="Tij77vFqYgEeM6soHszD-193" target="Tij77vFqYgEeM6soHszD-197">
          <mxGeometry relative="1" as="geometry">
            <mxPoint x="70" y="138.57142857142844" as="sourcePoint" />
          </mxGeometry>
        </mxCell>
        <mxCell id="Tij77vFqYgEeM6soHszD-199" value="" style="rounded=1;whiteSpace=wrap;html=1;fillColor=#fff2cc;strokeColor=#d6b656;opacity=30;" vertex="1" parent="Tij77vFqYgEeM6soHszD-193">
          <mxGeometry y="20" width="40" height="40" as="geometry" />
        </mxCell>
        <mxCell id="Tij77vFqYgEeM6soHszD-200" value="" style="rounded=0;orthogonalLoop=1;jettySize=auto;html=1;opacity=30;" edge="1" parent="Tij77vFqYgEeM6soHszD-193" source="Tij77vFqYgEeM6soHszD-197" target="Tij77vFqYgEeM6soHszD-199">
          <mxGeometry relative="1" as="geometry" />
        </mxCell>
        <mxCell id="Tij77vFqYgEeM6soHszD-201" value="" style="rounded=1;whiteSpace=wrap;html=1;fillColor=#fff2cc;strokeColor=#d6b656;opacity=30;" vertex="1" parent="Tij77vFqYgEeM6soHszD-193">
          <mxGeometry x="70" y="-10" width="40" height="40" as="geometry" />
        </mxCell>
        <mxCell id="Tij77vFqYgEeM6soHszD-202" value="" style="rounded=0;orthogonalLoop=1;jettySize=auto;html=1;opacity=30;" edge="1" parent="Tij77vFqYgEeM6soHszD-193" source="Tij77vFqYgEeM6soHszD-199" target="Tij77vFqYgEeM6soHszD-201">
          <mxGeometry relative="1" as="geometry" />
        </mxCell>
        <mxCell id="Tij77vFqYgEeM6soHszD-203" value="" style="rounded=1;whiteSpace=wrap;html=1;fillColor=#fff2cc;strokeColor=#d6b656;opacity=30;" vertex="1" parent="Tij77vFqYgEeM6soHszD-193">
          <mxGeometry x="140" y="10" width="40" height="40" as="geometry" />
        </mxCell>
        <mxCell id="Tij77vFqYgEeM6soHszD-204" style="rounded=0;orthogonalLoop=1;jettySize=auto;html=1;entryX=0.5;entryY=1;entryDx=0;entryDy=0;opacity=30;" edge="1" parent="Tij77vFqYgEeM6soHszD-193" source="Tij77vFqYgEeM6soHszD-195" target="Tij77vFqYgEeM6soHszD-203">
          <mxGeometry relative="1" as="geometry" />
        </mxCell>
        <mxCell id="Tij77vFqYgEeM6soHszD-205" value="" style="rounded=0;orthogonalLoop=1;jettySize=auto;html=1;opacity=30;" edge="1" parent="Tij77vFqYgEeM6soHszD-193" source="Tij77vFqYgEeM6soHszD-201" target="Tij77vFqYgEeM6soHszD-203">
          <mxGeometry relative="1" as="geometry" />
        </mxCell>
        <mxCell id="Tij77vFqYgEeM6soHszD-206" value="" style="rounded=1;whiteSpace=wrap;html=1;fillColor=#dae8fc;strokeColor=#6c8ebf;" vertex="1" parent="1">
          <mxGeometry x="-980" y="-430" width="40" height="40" as="geometry" />
        </mxCell>
        <mxCell id="Tij77vFqYgEeM6soHszD-207" value="" style="rounded=1;whiteSpace=wrap;html=1;fillColor=#dae8fc;strokeColor=#6c8ebf;" vertex="1" parent="1">
          <mxGeometry x="-860" y="-430" width="40" height="40" as="geometry" />
        </mxCell>
        <mxCell id="Tij77vFqYgEeM6soHszD-208" value="" style="edgeStyle=orthogonalEdgeStyle;rounded=0;orthogonalLoop=1;jettySize=auto;html=1;" edge="1" source="Tij77vFqYgEeM6soHszD-206" target="Tij77vFqYgEeM6soHszD-207" parent="1">
          <mxGeometry relative="1" as="geometry" />
        </mxCell>
        <mxCell id="Tij77vFqYgEeM6soHszD-209" value="" style="rounded=1;whiteSpace=wrap;html=1;fillColor=#dae8fc;strokeColor=#6c8ebf;" vertex="1" parent="1">
          <mxGeometry x="-860" y="-310" width="40" height="40" as="geometry" />
        </mxCell>
        <mxCell id="Tij77vFqYgEeM6soHszD-210" value="" style="edgeStyle=orthogonalEdgeStyle;rounded=0;orthogonalLoop=1;jettySize=auto;html=1;" edge="1" source="Tij77vFqYgEeM6soHszD-207" target="Tij77vFqYgEeM6soHszD-209" parent="1">
          <mxGeometry relative="1" as="geometry" />
        </mxCell>
        <mxCell id="Tij77vFqYgEeM6soHszD-211" value="" style="edgeStyle=orthogonalEdgeStyle;rounded=0;orthogonalLoop=1;jettySize=auto;html=1;" edge="1" source="Tij77vFqYgEeM6soHszD-212" target="Tij77vFqYgEeM6soHszD-206" parent="1">
          <mxGeometry relative="1" as="geometry" />
        </mxCell>
        <mxCell id="Tij77vFqYgEeM6soHszD-212" value="" style="rounded=1;whiteSpace=wrap;html=1;fillColor=#dae8fc;strokeColor=#6c8ebf;" vertex="1" parent="1">
          <mxGeometry x="-980" y="-310" width="40" height="40" as="geometry" />
        </mxCell>
        <mxCell id="Tij77vFqYgEeM6soHszD-213" value="" style="edgeStyle=orthogonalEdgeStyle;rounded=0;orthogonalLoop=1;jettySize=auto;html=1;" edge="1" source="Tij77vFqYgEeM6soHszD-209" target="Tij77vFqYgEeM6soHszD-212" parent="1">
          <mxGeometry relative="1" as="geometry" />
        </mxCell>
        <mxCell id="r81_bSy1_nfOfyMMS9X0-241" value="" style="rounded=0;whiteSpace=wrap;html=1;fontFamily=Helvetica;fontSize=11;fillColor=#dae8fc;strokeColor=#6c8ebf;" parent="1" vertex="1">
          <mxGeometry x="480" y="720" width="120" height="120" as="geometry" />
        </mxCell>
      </root>
    </mxGraphModel>
  </diagram>
</mxfile>
